<svg width="81" height="51" viewBox="0 0 81 51" fill="none" xmlns="http://www.w3.org/2000/svg">
<path d="M44.8169 26.0078C45.2079 24.5809 46.0586 23.5107 47.1493 22.5983C49.1456 20.9313 51.5192 20.0121 53.9408 19.1889C55.7244 18.5852 57.2611 17.6316 58.4342 16.1499C59.7925 14.4417 59.3809 13.1589 57.2885 12.5277C55.1825 11.8966 53.1107 12.171 51.2311 13.1794C49.3171 14.2085 47.5472 15.505 45.8322 16.6095C45.8116 16.6644 45.8596 16.4792 45.9488 16.3214C48.3773 12.0887 52.1298 10.0787 56.9112 9.92776C58.8183 9.86602 60.499 10.6687 61.8916 11.9652C63.5312 13.5019 63.4763 15.7314 61.7956 17.2338C60.4167 18.4686 58.7497 19.1614 57.0141 19.7034C55.9165 20.0464 54.7983 20.3071 53.6801 20.5746C50.1266 21.4047 47.1493 23.1746 44.8169 26.0078Z" fill="white"/>
<path d="M46.4562 0.591015C46.5042 1.40737 46.5866 2.0042 46.566 2.59417C46.518 3.96619 46.1406 5.16669 45.1665 6.25059C43.1291 8.52128 42.2578 11.3545 41.6267 14.27C41.5101 14.8257 41.4072 15.3814 41.2494 15.9302C40.6937 14.0505 40.8104 12.1708 41.1328 10.2843C41.6199 7.39623 42.5734 4.67278 44.014 2.12082C44.1512 1.88072 44.3022 1.65433 44.4531 1.42795C45.5233 -0.163594 45.6193 -0.184171 47.4646 0.220575C52.2599 1.27703 55.5253 4.20628 57.6656 8.51442C57.6999 8.58302 57.7068 8.66534 57.7273 8.7408C55.93 9.00835 53.6319 7.92446 52.7538 6.37408C51.6836 4.48755 50.3733 2.82055 48.528 1.64062C47.9106 1.26331 47.2245 0.98204 46.4562 0.591015Z" fill="white"/>
<path d="M61.4458 20.0051C62.2416 20.0463 62.8453 19.9846 63.4009 20.1149C64.3065 20.3276 65.1914 20.6294 66.0558 20.9587C66.3919 21.089 66.6869 21.3703 66.9545 21.631C68.793 23.4352 70.5972 25.2668 72.4562 27.0436C72.9776 27.5444 73.6636 27.8737 74.4731 28.4088C74.5211 27.7365 74.6652 27.2425 74.5692 26.8035C74.2879 25.5207 74.7063 24.4848 75.5021 23.5381C76.1332 22.7766 76.8055 22.0563 77.4024 21.2674C78.8636 19.3329 79.7348 17.1308 80.2013 14.7297C80.5717 15.4775 80.6815 16.678 80.2836 18.1666C79.282 21.9328 77.7385 25.4521 75.2277 28.4911C74.8504 28.9438 74.5005 29.0948 73.8969 28.9507C69.0742 27.7708 65.1708 25.2188 62.2004 21.24C61.9672 20.9313 61.7888 20.5677 61.4458 20.0051Z" fill="white"/>
<path d="M9.02051 40.7981C9.42525 40.3933 9.73396 40.0297 10.1044 39.7348C13.3012 37.1897 16.9988 35.7285 20.9365 34.8572C22.9671 34.4113 25.0525 34.2124 27.0763 33.7528C30.9042 32.8747 34.3411 31.0362 37.6957 29.0605C38.2582 28.7243 38.8139 28.3676 39.493 28.1138C39.2598 28.4156 39.0677 28.7586 38.7933 29.0193C35.4387 32.2161 31.5216 34.4799 27.0763 35.7147C24.3665 36.4694 21.5196 36.6957 18.8167 37.4641C15.5582 38.3833 12.3957 39.6319 9.02051 40.7981Z" fill="white"/>
<path d="M45.9282 26.3919C49.8659 23.8605 54.0917 22.6874 58.7429 23.6958C59.5798 23.8742 60.4099 24.2789 61.1233 24.7523C62.7492 25.8225 63.2568 27.4346 62.2758 29.1016C61.4252 30.5422 60.3344 31.8868 59.1408 33.0736C56.1086 36.092 52.6168 38.4793 48.6311 40.1532C49.1113 39.7622 49.5915 39.3643 50.0717 38.9733C50.5588 38.5754 51.0733 38.2049 51.5329 37.7727C54.0437 35.4129 56.5614 33.053 59.031 30.6451C59.621 30.0689 60.156 29.3691 60.0943 28.4087C59.9983 26.9475 59.1682 25.9597 57.8922 25.5001C56.5408 25.013 55.107 24.7111 53.6801 24.4916C51.4574 24.1486 49.4063 24.8758 47.3963 25.7264C46.9092 25.9391 46.4221 26.1723 45.9282 26.3919Z" fill="white"/>
<path d="M63.1676 8.6515C63.1333 7.94491 63.0373 7.23833 63.0784 6.5386C63.1196 5.81143 63.4969 5.37239 64.3338 5.31751C67.6472 5.09798 70.2815 6.28478 72.1886 9.01509C72.7443 9.81086 72.957 10.689 72.7717 11.6699C72.4699 13.2889 71.8731 14.7638 70.8166 16.0467C69.4515 17.7 66.7143 16.8356 65.8979 15.4979C65.8225 15.3744 65.8156 15.2098 65.747 14.9422C66.1174 15.1617 66.3576 15.3264 66.6182 15.4567C67.4895 15.8752 68.491 15.6076 68.834 14.709C69.2251 13.6731 69.5955 12.5755 69.671 11.4779C69.8356 9.18659 67.9834 7.08054 65.7058 6.75812C64.9169 6.64836 64.3201 7.00509 63.8948 7.64308C63.6821 7.95864 63.538 8.3085 63.3665 8.64464C63.2979 8.64464 63.2362 8.6515 63.1676 8.6515Z" fill="white"/>
<path d="M41.9631 20.5746C41.181 22.0083 39.9736 22.9002 38.6702 23.6822C37.8745 24.1624 37.0307 24.5672 36.2006 24.9856C33.4154 26.3851 30.836 28.0589 28.6819 30.3571C27.406 31.7222 25.7733 32.422 24.1611 32.6826C25.8556 30.8853 27.6255 28.9576 29.4571 27.0917C30.9938 25.5276 32.8323 24.3819 34.8354 23.5107C37.1679 22.4954 39.5277 21.5693 41.9631 20.5746Z" fill="white"/>
<path d="M8.95898 16.4379C18.5562 15.6833 28.1672 15.6902 37.7851 16.431C28.1878 17.2131 18.5837 17.2131 8.95898 16.4379Z" fill="white"/>
<path d="M12.3755 49.6682C20.635 48.9273 28.8809 48.9273 37.1267 49.6339C34.4924 50.3885 18.2066 50.4365 12.3755 49.6682Z" fill="white"/>
<path d="M38.3751 10.2639C30.1842 10.9979 21.9932 10.9979 13.6582 10.305C16.5326 9.46809 34.0052 9.44065 38.3751 10.2639Z" fill="white"/>
<path d="M40.9272 30.6518C42.4639 30.8165 44.0486 31.1183 45.6333 31.1183C47.609 31.1114 49.3857 30.2882 51.1213 29.3553C52.8021 28.4497 54.5445 27.6471 56.287 26.8719C56.8495 26.6249 57.5149 26.6044 58.1667 26.6044C55.059 28.5046 52.3356 31.036 48.6448 31.7906C46.4633 32.2365 44.2956 32.36 42.2032 31.4064C41.723 31.1869 41.2771 30.8645 40.9272 30.6518Z" fill="white"/>
<path d="M18.3916 4.85812C25.4438 4.13781 32.4822 4.14467 39.5207 4.83754C37.0785 5.63331 21.8148 5.66761 18.3916 4.85812Z" fill="white"/>
<path d="M0 49.2497C0.493926 48.7901 0.8781 48.4539 1.24168 48.0972C2.50394 46.8487 3.61528 45.4767 3.98572 43.7068C4.45907 41.4704 6.12607 40.9078 8.02631 40.5991C8.10863 40.5854 8.19096 40.5854 8.27328 40.5923C8.32816 40.5923 8.37617 40.6129 8.45849 40.6266C7.07275 43.3569 5.65272 46.046 3.11449 47.9257C2.23639 48.5706 1.31028 49.1262 0 49.2497Z" fill="white"/>
<path d="M21.623 0.659651C28.4969 -0.019498 35.1374 -0.019501 41.826 0.645928C40.0835 1.52402 24.3534 1.52402 21.623 0.659651Z" fill="white"/>
<path d="M39.3968 45.3395C33.1679 46.0942 26.9458 46.0942 20.7168 45.3395C26.9389 44.5712 33.1679 44.5781 39.3968 45.3395Z" fill="white"/>
<path d="M47.2799 41.1548C46.4704 42.4376 45.6678 43.6725 44.8994 44.9279C43.8155 46.7046 42.2926 48.207 40.3169 49.2291C40.461 49.0439 40.605 48.8518 40.7559 48.6666C41.8879 47.2603 42.7179 45.7099 43.1158 43.9331C43.6166 41.6624 44.8926 40.8255 47.2799 41.1548Z" fill="white"/>
<path d="M33.1272 21.3841C27.6048 22.1524 22.0756 22.1524 16.5464 21.3909C22.0688 20.6226 27.5911 20.6432 33.1272 21.3841Z" fill="white"/>
<path d="M40.7419 41.9438C36.2897 42.7121 31.8306 42.7259 27.3716 41.9507C31.8306 41.1755 36.2828 41.2166 40.7419 41.9438Z" fill="white"/>
<path d="M41.6611 17.2885C42.5872 17.4943 43.479 17.6589 44.3571 17.9059C44.8854 18.0568 45.4685 18.2351 45.8664 18.5781C46.4014 19.0446 46.2917 19.7101 45.9624 20.3137C45.64 20.9037 45.1117 20.9517 44.5423 20.8488C42.9851 20.5607 41.5925 18.7428 41.6611 17.2885Z" fill="white"/>
<path d="M80.1534 13.1929C79.193 13.0832 78.4452 12.9734 77.6975 12.9117C76.9909 12.8499 76.1883 12.9185 75.8796 12.1159C75.612 11.423 75.9962 10.8399 76.5518 10.4077C77.1418 9.95498 77.9582 9.98242 78.5413 10.6753C79.1793 11.4436 79.6389 12.3697 80.1534 13.1929Z" fill="white"/>
<path d="M44.2063 38.5892C41.5103 39.3096 38.9583 39.3095 36.3652 38.6167C37.6481 37.7523 42.3335 37.718 44.2063 38.5892Z" fill="white"/>
<path d="M20.6421 26.9132C22.5218 26.1106 24.4083 26.1449 26.2879 26.8995C24.4014 27.6678 22.5218 27.6335 20.6421 26.9132Z" fill="white"/>
<path d="M44.1719 35.5914C45.1323 34.8299 45.9898 34.8436 46.8542 35.6256C46.0104 36.442 44.9471 36.4283 44.1719 35.5914Z" fill="white"/>
</svg>
