<svg width="94" height="51" viewBox="0 0 94 51" fill="none" xmlns="http://www.w3.org/2000/svg">
<path d="M44.1949 16.1333C39.282 19.9418 34.4257 23.7079 29.5694 27.474C29.5057 27.3961 29.4491 27.3253 29.3854 27.2475C31.41 25.0884 33.4346 22.9363 35.4593 20.7772C37.767 18.3207 40.0678 15.8643 42.3755 13.4149C42.5879 13.1884 42.772 12.891 43.0339 12.7565C44.2161 12.1407 44.209 11.1071 44.1666 9.97446C44.0462 7.03663 43.9896 4.09172 43.9046 1.15389C43.9046 1.04062 43.8622 0.906128 43.9117 0.821179C44.0745 0.538015 44.2657 0.269006 44.4426 0C44.6055 0.261927 44.8957 0.516775 44.9028 0.785781C44.9877 3.21392 45.0231 5.64913 45.0656 8.08434C45.0868 9.10373 44.7895 10.2647 45.186 11.1C45.5682 11.9 46.6867 12.3247 47.4371 12.9689C52.2297 17.0748 57.0081 21.1948 61.7935 25.3149C62.3882 25.8317 62.9899 26.3484 63.5845 26.8652C63.5279 26.9502 63.4784 27.028 63.4217 27.113C57.6523 23.5522 51.8757 19.9985 46.0284 16.3881C46.2053 16.7916 46.3469 17.273 46.6089 17.6765C46.9982 18.2641 47.5221 18.7596 47.8973 19.3543C48.7184 20.6427 48.4282 22.0797 47.0548 22.7381C45.9788 23.2549 44.7612 23.4814 43.6002 23.807C42.9348 23.9911 42.0216 23.9486 42.0499 24.9043C42.0782 25.775 42.9773 25.7538 43.5719 25.775C45.2355 25.8317 46.9062 25.7963 48.5698 25.7538C50.474 25.7113 52.3712 25.7184 54.1835 26.3838C54.7781 26.6033 55.3799 26.9289 55.8542 27.3395C57.6098 28.8615 57.362 31.4454 55.2666 32.394C53.957 32.9886 52.4633 33.4063 51.0333 33.4629C47.6495 33.6045 44.2515 33.4134 40.8606 33.4842C38.8926 33.5267 36.9176 33.7178 34.9779 34.0364C33.6753 34.2487 33.017 35.0345 33.1373 35.8061C33.3143 36.9034 34.277 37.1512 35.1124 37.222C37.3069 37.406 39.5156 37.5759 41.703 37.498C46.0284 37.3423 50.3537 36.8963 54.6649 37.4414C56.2506 37.6396 57.8222 38.0644 59.3371 38.5599C60.5901 38.9705 61.5882 39.8412 61.6803 41.2924C61.7794 42.8144 61.0644 43.9613 59.8043 44.7754C58.2186 45.8018 56.4205 46.269 54.587 46.3894C51.2598 46.6018 47.9185 46.7009 44.5842 46.7292C39.9191 46.7646 35.2398 46.6018 30.6384 47.6282C29.8738 47.7981 29.1093 48.0459 28.3872 48.3503C27.3041 48.8034 26.4122 49.4688 26.398 50.8422C25.4565 50.0068 25.3645 48.86 26.1502 47.6919C27.1696 46.177 28.6704 45.4054 30.4331 45.2567C34.1496 44.9453 37.8803 44.6621 41.6039 44.4922C45.5328 44.3152 49.4688 44.3152 53.3977 44.1736C54.5445 44.1312 55.6984 43.9188 56.8311 43.6993C57.3125 43.6073 57.8009 43.3595 58.2044 43.0693C59.3654 42.234 59.2946 40.7969 57.9567 40.3509C56.6683 39.9262 55.2595 39.7138 53.9003 39.6926C48.8671 39.6147 43.8338 39.6784 38.7935 39.6289C37.2715 39.6147 35.7424 39.4873 34.2417 39.2678C33.5125 39.1616 32.7692 38.8147 32.1462 38.4112C30.1712 37.1299 30.1995 34.631 32.1816 33.3638C33.7603 32.3586 35.5655 32.033 37.3777 32.0117C41.1721 31.9622 44.9594 32.0896 48.7538 32.0471C49.8652 32.033 50.9767 31.7073 52.0739 31.4596C52.4704 31.3675 52.8526 31.1198 53.1853 30.8649C54.2755 30.0508 54.2118 28.7766 52.9659 28.2456C52.1022 27.8775 51.1182 27.6298 50.1838 27.6014C48.2087 27.5519 46.2266 27.7359 44.2515 27.7147C43.2746 27.7005 42.2694 27.5448 41.3349 27.2758C40.0253 26.8935 39.4165 26.0228 39.4448 24.876C39.4731 23.8495 40.1102 23.1274 41.4199 22.7523C41.9862 22.5894 42.5879 22.5611 43.1684 22.4691C43.8905 22.3558 44.6409 22.3133 45.3346 22.1081C47.1327 21.5771 47.4654 20.5577 46.3823 19.0428C45.6886 18.0588 44.9311 17.1031 44.1949 16.1333Z" fill="white"/>
<path d="M82.7404 34.7088C79.661 37.1228 76.5815 39.4377 73.0562 41.0729C76.5886 37.3422 80.1282 33.6045 83.6394 29.895C86.9524 33.2859 90.3363 36.7405 93.7625 40.2447C93.1679 40.0819 92.4883 40.0111 91.922 39.7208C88.9771 38.1705 86.0605 36.5635 83.1297 34.9707C83.0165 34.8999 82.9032 34.815 82.7404 34.7088Z" fill="white"/>
<path d="M0 47.0761C3.87227 42.8145 8.04186 38.8643 11.454 34.1213C13.5352 37.491 15.8572 40.6695 19.326 42.8216C18.0234 43.2817 15.1422 41.9154 11.7513 39.2608C8.21884 42.4464 4.16959 44.8533 0 47.0761Z" fill="white"/>
<path d="M29.8103 32.5426C28.3874 32.04 26.9291 31.6081 25.5487 31.0135C24.9116 30.7374 24.5789 30.8507 24.0904 31.2754C22.3631 32.7762 20.5863 34.2274 18.8165 35.6786C18.4838 35.9547 18.0803 36.1458 17.6343 36.2803C19.7722 32.9107 21.9101 29.534 24.0692 26.136C25.7611 28.4155 27.545 30.6312 29.9519 32.2311C29.9024 32.3373 29.8599 32.4364 29.8103 32.5426Z" fill="white"/>
<path d="M75.7962 32.7903C73.0141 31.7922 70.6142 30.1994 68.4764 28.3942C66.8198 29.4419 65.22 30.4471 63.6272 31.4594C63.5635 31.3674 63.4997 31.2825 63.436 31.1904C65.3757 29.1304 67.3225 27.0704 69.2763 25.0033C71.4637 27.6226 73.6299 30.2064 75.7962 32.7903Z" fill="white"/>
<path d="M45.9717 6.26507C46.8353 4.62271 47.1043 3.09363 46.3185 1.32385C48.9661 2.0884 51.4792 2.81754 53.9923 3.54669C53.9923 3.60332 53.9923 3.66704 53.9923 3.72367C51.373 4.559 48.7467 5.38726 45.9717 6.26507Z" fill="white"/>
</svg>
