<svg width="84" height="70" viewBox="0 0 84 70" fill="none" xmlns="http://www.w3.org/2000/svg">
<path d="M33.4786 38.8714C33.0167 37.2373 33.0096 35.7808 33.237 34.3171C33.7557 31.0275 35.269 28.3348 38.0115 26.3667C38.4307 26.0683 38.7007 26.0114 39.1768 26.3738C41.3153 27.9937 45.3083 26.8711 46.303 24.3702C45.5996 24.3062 44.9104 24.2565 44.2213 24.1712C43.1982 24.0434 42.2319 23.7805 41.4219 23.0558C41.0809 22.7502 40.5906 22.6011 40.143 22.4305C39.3544 22.1321 38.8002 22.324 38.1892 23.0273C36.1785 25.3507 33.7273 26.864 30.4874 26.6935C30.2742 26.6793 30.0042 26.8285 29.8408 26.9848C26.9349 29.7842 25.0521 33.0809 24.8603 37.2017C24.7182 40.129 25.4215 42.8218 27.0841 45.2517C27.1907 45.408 27.2973 45.5714 27.3541 45.7703C24.8887 44.2996 23.5103 41.9905 22.4659 39.2764C21.7128 40.7684 20.4481 41.55 19.1621 42.3031C13.0589 45.8627 6.94865 49.4152 0.845492 52.9676C0.611028 53.1026 0.355248 53.2163 0 53.2092C0.312618 52.925 0.603919 52.6124 0.952062 52.3708C6.84918 48.2713 12.7534 44.1859 18.6576 40.0935C19.2402 39.6885 19.8299 39.2977 20.3841 38.8501C21.4072 38.0259 22.0538 37.0383 22.2598 35.6529C22.9206 31.2336 25.2013 27.7237 28.633 24.9315C28.9669 24.6615 29.4145 24.4626 29.8337 24.3844C32.9812 23.8018 35.6882 22.4518 37.77 19.9651C37.9547 19.7449 38.3242 19.5814 38.6226 19.5601C40.207 19.4749 41.6422 20.0433 43.0063 20.7538C44.882 21.7342 46.8359 22.4518 49.0029 22.6863C49.1095 24.1357 48.7045 25.4004 47.7737 26.4733C46.1325 28.3703 44.0152 29.2584 41.5356 29.2726C41.0667 29.2726 40.4983 29.23 40.143 28.9742C39.4325 28.4697 38.9778 28.761 38.452 29.2087C35.8658 31.4396 34.5088 34.3527 33.7628 37.6067C33.6633 37.962 33.5923 38.3172 33.4786 38.8714Z" fill="white"/>
<path d="M51.1987 52.0793C51.9661 50.9496 52.6481 49.7489 53.522 48.7044C54.4244 47.6174 55.5185 46.6937 56.5061 45.6706C56.7903 45.3793 57.0816 45.0383 57.2237 44.6617C58.4103 41.4716 59.5755 38.2744 60.7194 35.07C60.8544 34.6864 60.9183 34.2387 60.8828 33.8338C60.5844 30.2458 60.627 26.6862 61.5507 23.1834C61.643 22.8353 61.8775 22.4303 62.1688 22.2456C68.8901 18.011 75.6256 13.8049 82.3682 9.59164C82.6453 9.41401 82.965 9.30744 83.37 9.31454C82.5956 9.93267 81.8424 10.5863 81.0396 11.1618C76.1656 14.6433 71.2702 18.0963 66.4033 21.5848C63.4832 23.6737 63.4619 23.695 63.2416 27.2688C63.064 30.1534 62.9859 33.0451 62.8509 35.9368C62.8367 36.1784 62.7514 36.4271 62.6661 36.6615C61.643 39.5462 60.6128 42.4237 59.5826 45.3012C59.4973 45.5356 59.405 45.8056 59.2344 45.9548C56.6695 48.0934 54.0976 50.2178 51.5185 52.3493C51.4048 52.2498 51.2982 52.1646 51.1987 52.0793Z" fill="white"/>
<path d="M71.4118 0.106581C68.8113 2.34464 66.2038 4.5827 63.6034 6.82077C60.0793 9.86169 56.5482 12.8955 53.0383 15.9577C52.6262 16.3201 52.2852 16.3769 51.7523 16.2419C48.0009 15.2899 44.4342 15.5243 41.2512 17.9969C41.1375 18.0821 41.0096 18.2029 40.8888 18.2029C40.3133 18.21 39.7449 18.1745 39.1694 18.1603C39.3542 17.6985 39.4394 17.1514 39.7449 16.789C42.2459 13.7765 45.5852 12.7889 49.294 13.3929C51.0276 13.6699 52.1573 13.3218 53.4788 12.1992C58.5518 7.89361 64.0368 4.1493 69.7776 0.78155C70.2181 0.525771 70.6728 0.298406 71.1275 0.063942C71.1986 0.0284172 71.2768 0.0213149 71.3549 0C71.3691 0.0284198 71.3904 0.0639511 71.4118 0.106581Z" fill="white"/>
<path d="M32.3984 55.7669C31.3753 54.9498 31.2403 53.9978 31.4393 52.9747C31.8656 50.7863 33.045 48.9675 34.4873 47.3546C35.6667 46.0402 36.3914 44.5411 36.8319 42.8856C37.8266 39.1911 38.7716 35.4823 39.7379 31.7806C39.7734 31.6456 39.816 31.5177 40.0576 31.3827C40.0576 32.1642 40.0647 32.9529 40.0576 33.7344C40.0434 34.5586 40.0221 35.3828 39.9936 36.1999C39.8302 40.8465 38.3311 45.0171 35.5886 48.7756C35.0273 49.543 34.6152 50.4382 34.2386 51.3121C34.0397 51.7739 34.0681 52.3352 33.9971 52.8468C34.0823 52.8965 34.1676 52.9462 34.2599 52.996C35.212 52.0865 36.1641 51.1913 37.109 50.2677C40.4413 47.0065 42.5798 42.9922 44.3774 38.7647C44.9955 37.3082 45.706 35.8872 46.4378 34.4805C45.365 40.1076 43.468 45.3866 39.8942 49.9479C39.411 50.5661 38.7858 51.0919 38.1535 51.5679C36.2422 53.0031 34.3026 54.3814 32.3984 55.7669Z" fill="white"/>
<path d="M29.0449 50.2536C22.1673 57.0033 14.8847 63.3054 7.57373 69.6217C7.89345 69.1883 8.20607 68.7549 8.53289 68.3286C8.86683 67.9023 9.18655 67.4689 9.55601 67.0781C13.8403 62.467 18.1104 57.8345 22.4373 53.259C23.9009 51.7101 25.7269 50.6586 27.8371 50.1896C28.1923 50.1115 28.5547 50.0901 28.917 50.0404C28.9597 50.1115 29.0023 50.1825 29.0449 50.2536Z" fill="white"/>
<path d="M36.562 53.3796C37.2227 54.1043 37.7627 53.7917 38.3382 53.5146C40.4697 52.4915 42.2957 51.1558 43.7593 49.2445C46.2389 46.0118 48.5481 42.7009 49.9335 38.8216C50.2532 37.9192 50.7151 37.0737 51.113 36.1998C51.184 36.2211 51.2551 36.2425 51.3332 36.2638C50.9851 37.6208 50.6724 38.9921 50.2888 40.342C49.4433 43.2977 48.2781 46.1184 46.6724 48.7543C45.429 50.7934 43.8304 52.4205 41.6776 53.4933C40.2353 54.218 38.7929 54.9569 37.3435 55.6603C36.6401 56.0014 36.2067 55.7243 36.2423 54.9214C36.2707 54.4667 36.427 54.012 36.562 53.3796Z" fill="white"/>
<path d="M55.0918 37.4717C54.7863 43.7027 52.2996 48.9959 48.0082 53.4863C47.8377 53.6639 47.6103 53.806 47.3758 53.8912C45.7275 54.4881 44.072 55.0849 42.4095 55.6319C42.1963 55.703 41.8908 55.5112 41.6279 55.4401C41.7629 55.2341 41.8553 54.9357 42.0471 54.8291C43.6813 53.9268 45.3438 53.0671 46.978 52.1647C47.3119 51.98 47.6316 51.7171 47.8732 51.4187C50.971 47.5749 53.1238 43.2267 54.7295 38.5872C54.8574 38.2248 54.9711 37.8482 55.0918 37.4717Z" fill="white"/>
</svg>
