<?xml version="1.0" encoding="utf-8"?>
<!-- Generator: Adobe Illustrator 26.2.1, SVG Export Plug-In . SVG Version: 6.00 Build 0)  -->
<svg version="1.1" id="Layer_1" xmlns="http://www.w3.org/2000/svg" xmlns:xlink="http://www.w3.org/1999/xlink" x="0px" y="0px"
	 viewBox="0 0 576 576" style="enable-background:new 0 0 576 576;" xml:space="preserve">
<g>
	<path d="M72.67,232.72c1.73,2.79,3.66,5.44,5.78,7.94c1.41,1.67,2.91,3.26,4.49,4.79c0.79,0.76,1.6,1.51,2.42,2.23
		c3.31,2.9,6.93,5.49,10.82,7.74c10.38,5.99,21.9,9.05,33.57,9.05c1.46,0,2.93-0.05,4.39-0.14c0.73-0.05,1.47-0.11,2.2-0.18
		c2.2-0.22,4.4-0.54,6.58-0.98c1.46-0.29,2.92-0.63,4.37-1.02c14.12-3.78,26.35-11.85,35.27-23.1c2.06-2.6,3.94-5.36,5.63-8.28
		c0.56-0.97,1.1-1.96,1.61-2.95c1.53-2.98,2.83-6.04,3.89-9.16c1.42-4.16,2.41-8.44,2.98-12.77c0.28-2.16,0.46-4.34,0.53-6.53
		c0.07-2.19,0.03-4.38-0.11-6.57c-0.15-2.19-0.4-4.39-0.76-6.58c-0.36-2.19-0.83-4.37-1.42-6.55c-1.16-4.34-2.73-8.51-4.68-12.46
		c-1.46-2.96-3.12-5.8-4.99-8.49c-0.62-0.9-1.26-1.78-1.93-2.65c-2.66-3.46-5.66-6.67-8.97-9.56c-3.31-2.9-6.93-5.49-10.82-7.74
		c-14.07-8.12-29.89-10.58-44.78-8.07c-2.13,0.36-4.24,0.82-6.32,1.37c-9.37,2.51-18.2,7.03-25.79,13.36
		c-5.9,4.93-11.05,10.95-15.11,17.99c-1.12,1.95-2.15,3.94-3.06,5.96c-0.46,1.01-0.89,2.03-1.3,3.06c-0.81,2.05-1.52,4.14-2.12,6.24
		c-0.3,1.05-0.58,2.11-0.83,3.18c-0.5,2.13-0.89,4.28-1.17,6.44c-1.14,8.66-0.57,17.54,1.75,26.23
		C66.54,221.03,69.2,227.15,72.67,232.72z M64.38,198.07c-0.2-11.72,2.78-23.31,8.79-33.72c3.78-6.56,8.54-12.21,13.98-16.88
		c3.81-3.27,7.95-6.07,12.33-8.35c2.5-1.31,5.09-2.45,7.73-3.42c0.66-0.24,1.32-0.48,1.99-0.7c2.67-0.89,5.39-1.6,8.16-2.14
		c4.14-0.81,8.37-1.22,12.61-1.22c11.1,0,22.34,2.82,32.62,8.76c1.89,1.09,3.72,2.27,5.47,3.53c1.75,1.26,3.44,2.59,5.04,4
		c0.8,0.7,1.59,1.43,2.35,2.17c1.53,1.48,2.99,3.03,4.36,4.65c0.69,0.81,1.35,1.63,2,2.48c3.23,4.21,5.94,8.81,8.07,13.74
		c0.43,0.98,0.83,1.98,1.21,2.99c0.76,2.02,1.42,4.09,1.99,6.2c0.87,3.25,1.48,6.54,1.85,9.82c1.54,13.77-1.33,27.62-8.39,39.85
		c-1.33,2.3-2.79,4.49-4.36,6.58c-1.06,1.42-2.17,2.8-3.34,4.13c-1.01,1.14-2.06,2.23-3.14,3.3c-7.96,7.83-17.83,13.53-28.91,16.5
		c-8.44,2.26-17.08,2.81-25.49,1.71c-3.16-0.42-6.28-1.06-9.35-1.94c-3.41-0.97-6.74-2.25-9.99-3.79c-1.29-0.61-2.57-1.27-3.83-1.96
		c-0.34-0.19-0.68-0.36-1.01-0.55c-8.52-4.92-15.67-11.54-21.11-19.39c-1.81-2.62-3.43-5.37-4.85-8.25
		c-1.42-2.88-2.63-5.87-3.62-8.97c-0.33-1.03-0.64-2.08-0.92-3.13c-0.28-1.06-0.54-2.11-0.77-3.17c-0.46-2.12-0.81-4.25-1.06-6.38
		S64.41,200.2,64.38,198.07z"/>
	<path d="M255.08,232.08c-6.75,3.9-12.52,8.83-17.25,14.49c-1.35,1.62-2.61,3.29-3.79,5.02c-1.76,2.59-3.33,5.3-4.69,8.1
		c-1.81,3.73-3.26,7.62-4.33,11.62c-0.27,1-0.51,2-0.73,3.01c-0.88,4.04-1.37,8.17-1.47,12.32c-0.14,6.23,0.61,12.53,2.33,18.68
		c1.43,5.13,3.51,10.16,6.3,14.98c11.95,20.7,33.7,32.28,56.04,32.28c4.11,0,8.23-0.39,12.32-1.19c2.73-0.53,5.43-1.24,8.11-2.14
		c0.67-0.22,1.34-0.46,2-0.71c3.32-1.24,6.58-2.77,9.75-4.6c10.6-6.12,18.81-14.82,24.3-24.84c0.5-0.91,0.98-1.83,1.43-2.77
		c0.91-1.87,1.72-3.77,2.45-5.71c0.72-1.94,1.35-3.91,1.89-5.91c0.54-2,0.97-4.02,1.32-6.06c2.4-14.28,0.05-29.45-7.74-42.94
		c-6.68-11.57-16.42-20.29-27.61-25.73c-2.8-1.36-5.69-2.52-8.64-3.46c-0.98-0.31-1.98-0.61-2.98-0.87
		c-3.99-1.07-8.09-1.76-12.23-2.05c-4.14-0.29-8.32-0.19-12.48,0.32c-3.12,0.39-6.23,1-9.31,1.86c-1.03,0.29-2.05,0.6-3.06,0.94
		C262.92,228.07,258.93,229.86,255.08,232.08z M287.27,225.29c5.44,0,10.93,0.72,16.33,2.16c16.18,4.33,29.7,14.71,38.07,29.21
		c2.09,3.63,3.8,7.4,5.12,11.28c0.66,1.94,1.22,3.9,1.68,5.88c0.46,1.98,0.83,3.98,1.09,6c0.4,3.02,0.57,6.07,0.52,9.13
		c-0.09,5.1-0.8,10.23-2.15,15.28c-0.27,1.01-0.57,2.01-0.88,3c-0.64,1.98-1.36,3.91-2.18,5.8c-0.41,0.94-0.84,1.87-1.29,2.79
		c-2.71,5.51-6.21,10.56-10.38,15.01c-2.09,2.23-4.35,4.31-6.76,6.22c-1.61,1.28-3.29,2.48-5.04,3.61
		c-0.87,0.56-1.76,1.11-2.67,1.63c-1.87,1.08-3.78,2.05-5.71,2.92c-1.93,0.87-3.89,1.63-5.86,2.28c-1.97,0.66-3.97,1.21-5.97,1.66
		c-9.02,2.03-18.28,2-27.1,0.08c-4.9-1.07-9.67-2.72-14.2-4.92c-10.86-5.28-20.32-13.75-26.8-24.97
		c-3.24-5.61-5.51-11.53-6.87-17.54c-0.9-4.01-1.4-8.07-1.5-12.11c-0.03-1.01-0.03-2.02,0-3.03c0.09-4.03,0.57-8.04,1.43-11.96
		c1.28-5.88,3.4-11.58,6.3-16.89c1.45-2.65,3.1-5.21,4.94-7.65c4.9-6.5,11.16-12.14,18.65-16.46c0.6-0.35,1.21-0.69,1.82-1.01
		c4.89-2.62,10.04-4.55,15.32-5.79C277.79,225.84,282.51,225.29,287.27,225.29z"/>
	<path d="M287.83,18.29l-0.47-0.27L54.01,152.75l-0.47,0.27v270l233.35,134.73l0.47,0.27l233.35-134.73l0.47-0.27v-270L287.83,18.29
		z M519.3,421.93L287.36,555.84L55.43,421.93V154.11L287.36,20.2L519.3,154.11V421.93z"/>
	<path d="M493.24,287.06c-6.48-7.99-14.05-15.05-22.48-20.97c-0.35,0.13-0.7,0.25-1.06,0.38c5.42,3.76,10.49,7.99,15.15,12.64
		c2.75,2.75,5.35,5.64,7.8,8.67c-2.23,2.7-4.58,5.29-7.06,7.76c-5.1,5.1-10.71,9.7-16.74,13.73c0.36,0.12,0.71,0.25,1.07,0.38
		c8.74-5.91,16.59-13.03,23.31-21.14c14.88,18.73,23.76,42.43,23.76,68.21c0,2.15-0.07,4.27-0.19,6.39
		c0.25,1.13,0.47,2.27,0.67,3.41c0.28-3.23,0.44-6.5,0.44-9.8c0-26.06-9.01-50.02-24.08-68.93c15.52-19.05,24.83-43.36,24.83-69.85
		c0-4.06-0.22-8.06-0.65-12.01c-0.16,1.28-0.35,2.55-0.57,3.81c0.2,2.71,0.3,5.44,0.3,8.2
		C517.73,244.14,508.55,268.19,493.24,287.06z"/>
	<path d="M407.24,466.47c-5.66,0-11.22-0.43-16.65-1.25c3.7-9.29,6.18-19.21,7.24-29.54c-0.28-0.23-0.56-0.47-0.84-0.7
		c-1.02,10.54-3.53,20.64-7.32,30.1c-10.59-1.7-20.66-4.94-30.01-9.44c0.07,0.37,0.13,0.75,0.2,1.12c9.19,4.36,19.08,7.5,29.46,9.19
		c-5.57,13.54-13.76,25.73-23.95,35.92c-7.13,7.13-15.25,13.28-24.12,18.24c-0.7,0.75-1.41,1.48-2.13,2.19
		c23-12.07,41.23-31.99,51.13-56.21c5.54,0.85,11.22,1.3,17,1.3c22.86,0,44.11-6.94,61.75-18.82c-1.09,0.38-2.19,0.73-3.3,1.05
		C448.76,460.29,428.72,466.47,407.24,466.47z"/>
	<path d="M210.15,501.86c-10.25-10.25-18.48-22.52-24.05-36.15c10.15-1.79,19.82-4.96,28.81-9.31c0.07-0.38,0.15-0.76,0.22-1.14
		c-9.15,4.5-19.01,7.78-29.39,9.58c-3.81-9.57-6.31-19.8-7.28-30.48c-0.28,0.24-0.57,0.47-0.85,0.71
		c1.02,10.47,3.49,20.51,7.22,29.92c-5.87,0.97-11.9,1.48-18.04,1.48c-21.75,0-42.01-6.32-59.06-17.23
		c-1.14-0.36-2.28-0.75-3.4-1.16c17.78,12.18,39.28,19.31,62.46,19.31c6.27,0,12.41-0.52,18.39-1.52
		c9.63,23.72,27.25,43.33,49.52,55.51c-0.71-0.73-1.41-1.47-2.09-2.22C224.38,514.37,216.84,508.55,210.15,501.86z"/>
	<path d="M81.02,288.24c6.48,8.3,14.13,15.64,22.69,21.8c0.34-0.13,0.69-0.25,1.03-0.38c-5.02-3.57-9.72-7.55-14.07-11.89
		c-3.23-3.23-6.25-6.65-9.06-10.26c2.38-2.93,4.91-5.73,7.58-8.4c4.72-4.72,9.87-9.01,15.38-12.81c-0.35-0.13-0.7-0.26-1.04-0.39
		c-8.43,5.88-16,12.9-22.49,20.85c-14.12-18.47-22.51-41.55-22.51-66.6c0-1.43,0.04-2.84,0.09-4.26c-0.28-1.04-0.52-2.09-0.75-3.14
		c-0.16,2.45-0.25,4.91-0.25,7.4c0,25.33,8.51,48.68,22.83,67.33c-15.22,18.96-24.32,43.02-24.32,69.22c0,4.19,0.24,8.32,0.69,12.39
		c0.16-1.18,0.36-2.36,0.58-3.54c-0.23-2.92-0.36-5.87-0.36-8.84C57.04,330.82,66.01,307.02,81.02,288.24z"/>
	<path d="M168.27,110.42c5.23,0,10.37,0.37,15.4,1.07c-3.5,9.1-5.82,18.78-6.79,28.85c0.28,0.24,0.57,0.47,0.85,0.71
		c0.94-10.29,3.29-20.16,6.87-29.43c10.78,1.61,21.04,4.8,30.56,9.3c-0.08-0.37-0.13-0.74-0.2-1.12
		c-9.37-4.37-19.45-7.46-30.02-9.06c5.57-14.06,13.96-26.69,24.47-37.21c7.45-7.44,15.95-13.82,25.28-18.89
		c0.73-0.75,1.49-1.48,2.25-2.2c-24.01,12.21-42.99,32.91-52.93,58.16c-5.14-0.73-10.39-1.11-15.74-1.11
		c-21.48,0-41.52,6.13-58.49,16.71c1.03-0.29,2.06-0.56,3.1-0.81C129.14,115.88,148.07,110.42,168.27,110.42z"/>
	<path d="M364.62,73.54c10.08,10.08,18.2,22.1,23.76,35.46c-9.97,1.78-19.47,4.9-28.32,9.16c-0.06,0.37-0.13,0.75-0.19,1.12
		c9-4.4,18.69-7.61,28.87-9.41c4.03,9.93,6.65,20.59,7.61,31.72c0.28-0.24,0.57-0.47,0.86-0.71c-1.01-10.93-3.59-21.39-7.54-31.17
		c5.96-1,12.08-1.52,18.32-1.52c23.64,0,45.54,7.48,63.45,20.19c1.18,0.45,2.35,0.93,3.5,1.45c-18.59-14.15-41.79-22.56-66.96-22.56
		c-6.36,0-12.61,0.54-18.68,1.57c-9.91-23.93-27.97-43.63-50.72-55.63c0.77,0.74,1.52,1.5,2.25,2.27
		C349.58,60.42,357.58,66.5,364.62,73.54z"/>
	<path d="M278.9,217.57c-0.32-14.02-3.26-27.4-8.33-39.66c-0.37-0.09-0.73-0.18-1.1-0.28c5.2,12.36,8.2,25.87,8.52,40.05
		C278.29,217.64,278.6,217.61,278.9,217.57z"/>
	<path d="M305.94,177.46c-0.36,0.09-0.72,0.17-1.08,0.26c-4.85,12.42-7.52,25.93-7.54,40.07c0.3,0.04,0.61,0.09,0.91,0.14
		C298.23,203.63,300.97,189.98,305.94,177.46z"/>
	<path d="M200.38,218.53c-0.11,0.35-0.23,0.7-0.34,1.05c8.32,10.56,18.53,19.57,30.12,26.52c0.18-0.25,0.36-0.5,0.54-0.75
		c-7.77-4.66-14.93-10.23-21.3-16.6C206.19,225.54,203.18,222.12,200.38,218.53z"/>
	<path d="M183.74,247.36c-0.25,0.27-0.49,0.55-0.75,0.81c13.88,2.05,26.9,6.72,38.57,13.46c0.12-0.29,0.24-0.57,0.35-0.86
		C210.35,254.1,197.46,249.47,183.74,247.36z"/>
	<path d="M352.71,260.41c0.12,0.29,0.24,0.57,0.36,0.86c11.69-6.65,24.71-11.22,38.58-13.19c-0.26-0.27-0.5-0.55-0.75-0.82
		C377.18,249.29,364.29,253.84,352.71,260.41z"/>
	<path d="M364.62,228.75c-6.24,6.24-13.23,11.71-20.82,16.31c0.19,0.25,0.38,0.5,0.56,0.75c11.61-7.05,21.82-16.17,30.12-26.86
		c-0.11-0.36-0.22-0.72-0.33-1.08C371.21,221.71,368.03,225.34,364.62,228.75z"/>
	<path d="M344.38,330.24c7.65,4.62,14.7,10.13,20.99,16.41c3.26,3.26,6.31,6.72,9.14,10.37c0.11-0.35,0.22-0.71,0.34-1.06
		c-8.27-10.53-18.41-19.52-29.91-26.47C344.74,329.74,344.56,329.99,344.38,330.24z"/>
	<path d="M392.94,326.66c-14.14-1.94-27.41-6.58-39.3-13.37c-0.11,0.29-0.24,0.58-0.35,0.87c11.77,6.7,24.89,11.32,38.85,13.32
		C392.4,327.21,392.67,326.93,392.94,326.66z"/>
	<path d="M296.59,358.34c0.2,14.1,3.03,27.56,8.04,39.91c0.37,0.09,0.74,0.18,1.11,0.28c-5.14-12.46-8.04-26.06-8.23-40.33
		C297.2,358.25,296.9,358.3,296.59,358.34z"/>
	<path d="M222.48,316.66c-0.12-0.28-0.24-0.57-0.37-0.85c-11.61,6.55-24.52,11.05-38.26,13c0.25,0.27,0.51,0.54,0.75,0.82
		C198.2,327.62,210.98,323.13,222.48,316.66z"/>
	<path d="M269.31,398.44c5.07-12.44,7.93-26.01,8.12-40.23c-0.3-0.04-0.61-0.09-0.91-0.13c-0.17,14.39-3.12,28.12-8.32,40.67
		C268.57,398.64,268.94,398.54,269.31,398.44z"/>
	<path d="M210.15,346.65c6.14-6.14,13.02-11.55,20.47-16.1c-0.19-0.25-0.38-0.5-0.56-0.75c-11.55,7.07-21.7,16.2-29.94,26.88
		c0.11,0.36,0.23,0.71,0.34,1.07C203.44,353.84,206.68,350.13,210.15,346.65z"/>
	<path d="M311.1,246.44c0,0-3.18,4.45-4.39,7.4C308.8,251.19,311.1,246.44,311.1,246.44z"/>
	<path d="M283.1,287.69c0,2.24,1.81,4.05,4.05,4.05s4.05-1.81,4.05-4.05c0-2.24-1.81-4.05-4.05-4.05S283.1,285.46,283.1,287.69z"/>
	<path d="M319.2,278.9c4.22,0.54,10.07-1.76,10.07-1.76S322.57,277.4,319.2,278.9z"/>
	<path d="M275.7,245.96c-0.12,0.29,0.53,5.5,3.4,9.72C278.34,251.05,275.7,245.96,275.7,245.96z"/>
	<path d="M252.32,265.18c-3.96-1.99-17.41-8.26-17.41-8.26s0.32,0.18,0.89,0.51c-0.56-0.32-0.87-0.5-0.87-0.5
		s12.12,8.48,15.83,10.92c3.6,2.37,19.51,11.9,20.53,19.49c-0.79,7.62-16.92,17.29-20.55,19.68c-3.71,2.44-15.86,10.95-15.86,10.95
		s0.32-0.18,0.89-0.51c-0.56,0.32-0.87,0.5-0.87,0.5s13.41-6.26,17.37-8.25c3.76-1.89,19.29-10.51,26.62-8.22
		c6.22,4.48,6.52,23.3,6.78,27.64c0.26,4.43,1.55,19.21,1.55,19.21s0-0.36,0-1.02c0,0.64,0,1,0,1s1.29-14.74,1.54-19.16
		c0.24-4.13,0.53-21.39,5.92-26.9c0.06-0.03,0.12-0.06,0.19-0.1c6.73-3.72,23.78,5.77,27.75,7.76c3.96,1.99,17.41,8.26,17.41,8.26
		s-0.32-0.18-0.89-0.51c0.56,0.32,0.87,0.5,0.87,0.5s-12.12-8.48-15.83-10.92c-3.6-2.37-19.51-11.9-20.53-19.49
		c0.79-7.62,16.92-17.29,20.55-19.68c3.71-2.44,15.86-10.95,15.86-10.95s-0.32,0.18-0.89,0.51c0.56-0.32,0.87-0.5,0.87-0.5
		s-13.41,6.26-17.37,8.25c-3.76,1.89-19.29,10.51-26.62,8.22c-6.22-4.48-6.52-23.3-6.78-27.64c-0.26-4.43-1.55-19.21-1.55-19.21
		s0,0.36,0,1.02c0-0.64,0-1,0-1s-1.29,14.74-1.54,19.16c-0.24,4.13-0.53,21.39-5.92,26.9c-0.06,0.03-0.12,0.06-0.19,0.1
		C273.34,276.66,256.28,267.17,252.32,265.18z M275.34,287.57c0.11-1.51-0.06-4.81-7.12-9.82c3.83,1.66,10.03,4.47,10.63,9.51
		c-0.36,5.25-6.72,8.15-10.64,9.85C274.85,292.4,275.39,289.19,275.34,287.57z M285.8,309.06c-0.47-5-1.6-7.7-2.73-9.22
		c-0.36-0.6-0.75-1.09-0.97-1.23c-0.93-0.59-3.47-3.23-12.54,0.94c3.23-2.4,8.48-6.14,13.03-4.63
		C286.96,297.85,286.29,304.82,285.8,309.06z M295.71,297.53c-0.75,0-1.41,0.1-1.66,0.23c-0.98,0.51-4.53,1.39-5.46,11.33
		c-0.45-3.85-1.05-9.97,2.13-13.25c0.03-0.02,0.05-0.03,0.08-0.05c4.84-3.03,10.9,1.3,14.48,3.96
		C300.53,297.56,297.58,297.25,295.71,297.53z M299.58,287.53c-0.11,1.51,0.06,4.81,7.12,9.82c-3.83-1.66-10.03-4.47-10.63-9.51
		c0.36-5.25,6.72-8.15,10.64-9.85C300.06,282.7,299.53,285.91,299.58,287.53z M289.11,266.04c0.47,5,1.6,7.7,2.73,9.22
		c0.36,0.6,0.74,1.09,0.97,1.23c0.93,0.59,3.47,3.23,12.54-0.94c-3.23,2.4-8.48,6.14-13.03,4.63
		C287.95,277.25,288.62,270.28,289.11,266.04z M290.06,281.6c0.67,0.37,1.89,1.17,2.82,2.58c0,0,0,0-0.01,0
		c0.66,1.2,0.88,2.39,0.94,3.26c-0.02,0.82-0.17,2.1-0.83,3.42c0,0,0,0-0.01,0c-0.35,0.58-0.75,1.06-1.16,1.46
		c-0.14,0.05-0.26,0.11-0.36,0.18c0,0-1.67,1.32-4.13,1.47c0,0,0-0.01,0-0.01c-0.96-0.02-1.8-0.22-2.5-0.48
		c-0.67-0.37-1.89-1.17-2.82-2.58c0,0,0,0,0.01,0c-0.66-1.2-0.88-2.39-0.94-3.26c0.02-0.82,0.17-2.1,0.83-3.42c0,0,0,0,0.01,0
		c0.35-0.58,0.75-1.06,1.16-1.46c0.14-0.05,0.26-0.11,0.36-0.18c0,0,1.67-1.32,4.13-1.47c0,0,0,0.01,0,0.01
		C288.53,281.15,289.37,281.35,290.06,281.6z M279.21,277.56c0.75,0,1.41-0.1,1.66-0.23c0.98-0.51,4.53-1.39,5.46-11.33
		c0.45,3.85,1.05,9.97-2.13,13.25c-0.03,0.02-0.05,0.03-0.08,0.05c-4.84,3.03-10.9-1.3-14.48-3.96
		C274.39,277.54,277.33,277.84,279.21,277.56z"/>
	<path d="M310.64,264.31c3.63-2.97,6.72-7.8,6.72-7.8C317.05,256.55,312.86,259.71,310.64,264.31z"/>
	<path d="M263.9,323.43c-1.63,2.56-4.87,12.41-4.87,12.41s7.21-7.54,9.39-11.37c2.18-3.83,8.55-20.08,8.55-20.08
		S265.53,320.87,263.9,323.43z M267.08,324.18c-1.37,2.6-6.06,8.33-6.06,8.33c0.46-1.89,3.73-8.35,4.26-9.35
		c0.53-1,6.32-8.84,6.32-8.84S268.46,321.58,267.08,324.18z"/>
	<path d="M263.35,328.51c0,0,3.18-4.45,4.39-7.4C265.66,323.75,263.35,328.51,263.35,328.51z"/>
	<path d="M255.26,296.04c-4.22-0.54-10.07,1.76-10.07,1.76S251.89,297.54,255.26,296.04z"/>
	<path d="M298.76,328.98c0.12-0.29-0.53-5.5-3.4-9.72C296.12,323.89,298.76,328.98,298.76,328.98z"/>
	<path d="M245.66,276.84c0.2,0.25,5.03,2.3,10.12,1.92C251.38,277.1,245.66,276.84,245.66,276.84z"/>
	<path d="M263.81,310.64c-3.63,2.97-6.72,7.8-6.72,7.8C257.41,318.39,261.6,315.23,263.81,310.64z"/>
	<path d="M277.93,270.2c0,0-8.55-18.15-9.95-20.85c-1.41-2.69-8.31-10.42-8.31-10.42s2.93,10.01,5.15,13.82
		C267.04,256.56,277.93,270.2,277.93,270.2z M267.52,250.69c0.61,0.96,4.5,9.89,4.5,9.89s-4.72-6.35-6.29-8.84
		c-1.56-2.49-4.18-9.42-4.18-9.42C262.96,243.66,266.92,249.73,267.52,250.69z"/>
	<path d="M310.61,328.6c0,0-2.27-4.98-4.21-7.5C307.64,324.22,310.61,328.6,310.61,328.6z"/>
	<path d="M263.85,246.35c0,0,2.27,4.98,4.21,7.5C266.82,250.72,263.85,246.35,263.85,246.35z"/>
	<path d="M240.06,287.29c0,0,5.45,0.53,8.6,0.1C245.34,286.91,240.06,287.29,240.06,287.29z"/>
	<path d="M267.76,287.03c0,0-20-1.67-23.03-1.8c-3.04-0.13-13.18,1.99-13.18,1.99s10.14,2.47,14.54,2.45
		C250.5,289.64,267.76,287.03,267.76,287.03z M235.43,287.27c1.86-0.55,9.09-0.94,10.23-0.99c1.13-0.05,10.82,1.05,10.82,1.05
		s-7.86,0.92-10.8,1.02C242.74,288.47,235.43,287.27,235.43,287.27z"/>
	<path d="M263.87,263.88c-1.64-3.92-6.56-7.85-6.56-7.85S260.89,261.71,263.87,263.88z"/>
	<path d="M278.53,319.72c-2.58,3.38-3.52,9.6-3.52,9.6S278.14,323.39,278.53,319.72z"/>
	<path d="M334.39,287.65c0,0-5.45-0.53-8.6-0.1C329.12,288.04,334.39,287.65,334.39,287.65z"/>
	<path d="M310.56,251.51c1.63-2.56,4.87-12.41,4.87-12.41s-7.21,7.54-9.39,11.37c-2.18,3.83-8.55,20.08-8.55,20.08
		S308.93,254.07,310.56,251.51z M307.37,250.76c1.37-2.6,6.06-8.33,6.06-8.33c-0.46,1.89-3.73,8.35-4.26,9.35
		c-0.53,1-6.32,8.84-6.32,8.84S306,253.36,307.37,250.76z"/>
	<path d="M306.7,287.91c0,0,20,1.67,23.03,1.8s13.18-1.99,13.18-1.99s-10.14-2.47-14.54-2.45
		C323.96,285.3,306.7,287.91,306.7,287.91z M339.03,287.67c-1.86,0.55-9.09,0.94-10.23,0.99c-1.13,0.05-10.82-1.05-10.82-1.05
		s7.86-0.92,10.8-1.02C331.72,286.48,339.03,287.67,339.03,287.67z"/>
	<path d="M295.93,255.22c2.58-3.38,3.52-9.6,3.52-9.6S296.32,251.55,295.93,255.22z"/>
	<path d="M328.8,298.11c-0.2-0.25-5.03-2.3-10.12-1.92C323.07,297.84,328.8,298.11,328.8,298.11z"/>
	<path d="M296.53,304.74c0,0,8.55,18.15,9.95,20.85c1.41,2.69,8.32,10.42,8.32,10.42s-2.93-10.01-5.15-13.82
		C307.42,318.38,296.53,304.74,296.53,304.74z M306.94,324.26c-0.61-0.96-4.5-9.89-4.5-9.89s4.72,6.35,6.29,8.84
		s4.18,9.42,4.18,9.42C311.5,331.28,307.54,325.21,306.94,324.26z"/>
	<path d="M310.58,311.07c1.64,3.92,6.56,7.85,6.56,7.85S313.57,313.23,310.58,311.07z"/>
	<path d="M116.17,182.85c0.24,0.41,0.37,0.99,1.34,1.29c-0.35-1.22-1.93-3.64-2.21-4.15C115.26,179.92,115.93,182.43,116.17,182.85z
		"/>
	<path d="M153.97,226.5c-2.65,1.39-7.12,1.12-8.64-0.44c-2.6,1.08-4.62,5.64-4.17,7.49c-1.28,0.39-4.32-0.12-4.32-0.12
		s0.06,2.98-0.11,4.73c-2.41,0.1-4.59,1.74-6,3.31c0,5.09-2.74,7.2-7.61,4.98c-4.88-2.22-14.05-11.03-16.71-18.38
		c-2.67-7.35,2.69-19.79,2.69-19.79c-2.31,2.77-5.8,8.03-6.17,15.6c-0.36,7.56,8.15,16.85,13.33,21.58s10.35,6.06,12.54,4.89
		c2.19-1.17,4.9-4.52,4.89-7.29c0.64-1.45,2.83-2.68,5.71-2.27c0.93-2.18-0.09-4.32-0.09-4.32s2.22,0.73,4.4-1.01
		c-0.6-1.94-0.45-4.67,1.93-6.21c2.67,2.62,9.24,1.82,11.17-1.76c-1-11.49-0.31-15.31,1.34-20.28
		C154.65,211.88,153.64,223.01,153.97,226.5z"/>
	<path d="M123.86,173.04c0,0-2.03-6.8-7.13-8.37c-5.09-1.57-12.23,1.11-14.35,7.48c-2.12,6.37,0.77,11.23,4.36,13.75
		c3.59,2.52,7.63,1.63,8.87,0.71c-2.29,0.33-4.65-0.97-4.09-3.2c0.56-2.23,0.68-3.41,0.68-3.41l-1.31,3.54c0,0-1.7,2.85-3.3,1.85
		c-1.6-1-1.94-2.03-2.12-2.49c-0.18-0.46-0.11-2.41,1.66-3.37c1.76-0.96,2.44-1.43,2.44-1.43l-2.8,0.98c0,0-3.26,1.19-3.55-2
		c-0.29-3.19,3.77-2.98,5.65-2.13c0,0-5.47-2.47-3.36-5.03c2.55-2.9,5.42,2.18,5.42,2.18s-2.64-5.91,0.89-6.47
		c3.96-0.6,2.83,4.61,2.75,5.6c0.67-1.49,1.93-6.41,5.25-3.64c3.32,2.77-1.67,5.43-2.13,5.79
		C119.81,172.56,121.98,171.59,123.86,173.04z"/>
	<path d="M114.24,171.9c-2.38-0.34-4.56,1.15-4.86,3.32c-0.31,2.17,1.38,4.2,3.75,4.54c2.38,0.34,4.56-1.15,4.86-3.32
		C118.3,174.27,116.62,172.24,114.24,171.9z M115.37,176.14c-0.18,1.28-1.39,2.17-2.7,1.98c-1.31-0.18-2.23-1.37-2.05-2.65
		c0.18-1.28,1.39-2.17,2.7-1.98C114.64,173.67,115.55,174.86,115.37,176.14z"/>
	<polygon points="133.58,174.91 136.62,173.55 136.51,173.22 133.67,174.51 	"/>
	<path d="M126.8,157.03c0.16-1.11-0.6-2.13-1.68-2.28c-1.08-0.15-2.09,0.62-2.25,1.73c-0.16,1.11,0.6,2.13,1.68,2.28
		C125.64,158.91,126.64,158.14,126.8,157.03z M123.77,156.32c0.08-0.56,0.61-0.95,1.18-0.87c0.57,0.08,0.97,0.6,0.89,1.16
		c-0.08,0.56-0.61,0.95-1.18,0.87C124.09,157.41,123.69,156.89,123.77,156.32z"/>
	<path d="M138.27,175.98c0,0,0.12-0.82,0.11-1c-0.3,0.71-1.49,3.65-1.27,4.59L138.27,175.98z"/>
	<path d="M155.32,183.15c0.06,0.01,0.12,0.02,0.18,0.03c0.12,0.01,0.24-0.01,0.36-0.01c0.27,0.01,0.44,0.01,0.44,0.01l-0.1-0.04
		c1.4-0.2,2.49-1.22,2.56-2.5c0.02-0.45-0.09-0.88-0.3-1.26l0.11-0.05l-10.66-15c0,0-4.9-4.22-9.84-2.95
		c-4.94,1.26-6.6,3.91-7.76,7.05c-0.75,2.43,0.36,4.67,0.36,4.67s-0.28-2.58,0.18-4.14c1.19,0.33,5.37,1.89,5.37,1.89l0.12-0.57
		l-5.17-2.13c0,0,1.22-3.39,4.04-4.58c0.73,1.45,2.6,4.91,2.6,4.91l0.6-0.21l-2.6-4.98c0,0,2.64-1.4,6.09-0.19
		c-0.67,2.1-1.63,5.26-1.63,5.26l0.6,0.05l1.63-5.03c0,0,3.16,0.67,5.19,4.36c-2.33,1.18-5.11,2.55-5.11,2.55s0.24,0.45,1.33,0.01
		c1.09-0.44,4.13-1.78,4.13-1.78s1.61,3.25,0.04,7c-2.24-1.01-5.31-2.26-5.31-2.26s-0.34,0.47,0.08,0.7
		c0.42,0.22,4.91,2.17,4.91,2.17s-1.39,3.03-4.05,4.18c-0.71-1.49-2.17-4.42-2.46-4.78c-0.29-0.36-0.63-0.6-0.54-0.19
		c0.09,0.41,2.44,5.18,2.44,5.18s-3.96,1.23-5.22,1.17c3.23,0.59,6.74,1.17,9.86,1.25C150.09,183.02,153.62,183.11,155.32,183.15z
		 M158.24,180.85c-0.14,1.03-1.09,1.75-2.12,1.6c-1.03-0.14-1.74-1.1-1.6-2.12c0.14-1.03,1.09-1.75,2.12-1.6
		S158.38,179.82,158.24,180.85z M150.27,175.26c1.04-3.04-0.25-7.33-0.25-7.33l7.37,10.33c-0.46-0.28-1.01-0.46-1.61-0.49
		c-1.72-0.09-3.18,1.04-3.26,2.53c-0.04,0.75,0.28,1.44,0.82,1.96c-1.75,0.01-7.57,0.01-10.55-0.48
		C146.46,181.42,149.23,178.3,150.27,175.26z"/>
	<path d="M151.75,191.58c-1.02-0.14-1.96,0.6-2.11,1.66c-0.15,1.06,0.55,2.03,1.57,2.17c1.02,0.14,1.96-0.6,2.11-1.66
		C153.47,192.69,152.77,191.72,151.75,191.58z M152,194.28c-0.47,0.35-1.06,0.36-1.32,0.01c-0.26-0.34-0.09-0.91,0.38-1.26
		c0.47-0.35,1.06-0.36,1.32-0.01C152.64,193.36,152.47,193.93,152,194.28z"/>
	<path d="M134.44,195.68c0,0,4.51-6,2.52-12.9c-1.99-6.9-7.32-8.7-11.16-8.1c-3.84,0.59-7.11,4.2-6.71,8.97
		c0.4,4.77,5.82,5.49,7.6,4.58c1.78-0.91,2.55-3.6,1.95-5.08c-0.59-1.48-2.1-1.41-2.95-1.62c0,0,2.62,1.11,1.69,3.71
		c-0.93,2.6-4.52,1.44-5.17,0.29c-0.64-1.15-2.02-4.05,1.98-6.92c4-2.49,8.99,1.51,9.47,5.15c0.48,3.64,0.87,7.85-5.39,13.05
		c-6.26,5.2-21.17,1.35-26.44-7.27c0,0-9.22-11.92-1.01-28.02c6.98-13.68,27.36-16.71,39.62-12.28c0,0,38.03,12.83,26.18,43.95
		c-5.4,14.18-19.88,11.85-25.52,9.53c5.06,5.04,8.84,13.2,2.7,19.6c4.3-0.96,5.88-6.95,5.57-9.47c2.66-0.41,3.72-4.14,3.61-4.8
		c-1.14,2.18-4.37,2.35-4.37,2.35s-0.88-2.81-1.62-3.77c2.08,1.29,8.52,1.73,13.55-0.89c7.38-3.85,16.69-18.99,10.47-34.39
		c-3.37-8.98-14.83-21.86-28.03-26.79c-13.21-4.93-32.78-4.18-43.25,9.29c-10.47,13.47-8.03,30.54,2.93,41.12
		C113.61,205.56,130.11,202.86,134.44,195.68z"/>
	<path d="M141.99,172.17c0.2-1.43-0.77-2.75-2.17-2.95c-1.4-0.2-2.69,0.8-2.9,2.23c-0.2,1.43,0.77,2.75,2.17,2.95
		C140.5,174.6,141.79,173.6,141.99,172.17z M138.1,172.78c-0.19-0.68,0.19-1.38,0.85-1.57c0.66-0.19,1.36,0.2,1.55,0.88
		s-0.19,1.38-0.85,1.57C138.99,173.85,138.3,173.46,138.1,172.78z"/>
	<path d="M152.77,185.81c-4.72-0.87-10.75,1.86-11,7.65c-0.14,2.74,0.8,5.66,4.47,7.9c3.67,2.23,10.45,1.56,12.37-3.15
		C160.53,193.49,158.13,186.75,152.77,185.81z M157.64,192.16c0.21,0.98,0.82,3.42-0.19,5.68c-0.75-1.01-2.16-2.28-3.69-2.87
		c0.36,0.7,3.44,3.39,3.44,3.39s-1.54,1.85-3.03,2.32c-0.21-0.83-1.29-3.71-1.89-4.62c0.1,0.57,1.01,3.59,1.55,4.71
		c-2.73,1.1-5.46-0.47-6.24-1.03c0.27-0.33,2.59-4.02,2.59-4.02c-0.61,0.31-2.23,2.65-2.92,3.65c-0.67-0.54-1.68-1.93-2.29-3.67
		c0.74-0.16,2.87-0.53,3.48-1.35c-0.6-0.12-1.62,0.25-3.53,0.71c-0.14-1.47,0.1-3.44,1.14-5.19c0.52,0.5,3.29,1.98,3.29,1.98
		s-2-1.92-2.95-2.42c0.6-0.95,1.93-1.55,3.29-2.12c0.3,0.93,1.35,3.43,1.35,3.43s-0.26-2.49-0.88-3.44c1.21-0.41,2.9-0.36,4.71,0.8
		c-0.87,1.38-1.56,3.11-1.56,3.11s1.52-1.76,2.08-2.86c1.19,0.96,2.12,3.46,2.12,3.46s-2.29,0.58-3.31,1.13
		C154.54,192.99,157.03,192.66,157.64,192.16z"/>
	<path d="M132.24,158.55c0.56-3.95-1.98-7.58-5.66-8.09c-3.68-0.52-7.12,2.26-7.68,6.22c-0.56,3.95,1.98,7.58,5.66,8.09
		C128.24,165.29,131.68,162.51,132.24,158.55z M124.14,159.15l-0.67,2.73c0,0-1.09-0.56-1.55-1.04c-0.47-0.49-0.94-1.19-0.94-1.19
		l1.83-1.19l-0.25-0.37l-1.7,1.03c0,0-0.46-0.61-0.46-1.6c-0.01-0.99,0.21-1.35,0.21-1.35l1.78,0.42l0.02-0.43l-1.65-0.45
		c0,0,0.25-0.96,0.68-1.49c0.43-0.53,0.95-0.88,0.95-0.88l1.02,1.43l0.32-0.22l-1.02-1.46c0,0,0.53-0.44,1.44-0.59
		c0.91-0.15,1.37,0.03,1.37,0.03l-0.23,1.89l0.4,0.07l0.31-1.89c0,0,0.83,0.02,1.76,0.69c0.93,0.67,1.05,1.24,1.05,1.24l-1.73,1.06
		l0.17,0.4l1.7-0.97c0,0,0.4,0.46,0.65,1.52c0.25,1.06,0.03,1.67,0.03,1.67l-2.41-0.7l-0.13,0.38l2.41,0.81c0,0-0.03,0.75-0.43,1.51
		c-0.4,0.76-1.05,1.07-1.05,1.07l-1.62-2.39l-0.29,0.22l1.55,2.41c0,0-0.88,0.5-1.73,0.68c-0.86,0.18-1.86-0.15-1.86-0.15l0.51-2.78
		L124.14,159.15z"/>
	<path d="M334.35,108.09c1.74,1.26,11.5,7.31,14.65,7.2c-3.36-2.37-11.87-11.64-13.46-13.57c-1.46,2.23-13.86,14.82-13.86,14.82
		C323.53,116.15,331.73,110.45,334.35,108.09z"/>
	<path d="M285.71,78.17l-0.21-14.08c0,0-0.19-0.77-0.58-0.78c-0.39-0.01-0.7,0.6-0.7,0.6s0.31,11.04,0.37,14.8
		c-0.67,0.08-2.91,2.63-2.91,2.63L265.14,98.9c3.72-2.16,19.36-14.84,19.36-14.84s3.66,4.5,3.84,5.36c0.19,2.91-4.71,2.98-5.68,3.01
		c-0.96,0.03-4.19,0.61-4.2,3.05c-0.06,4.27,6.91,3.76,9.61,3.5s9.21-0.31,9.14,2.56c-0.07,2.87-6.15,3.29-6.15,3.29
		s-11.59-0.08-12.54-0.17c-0.95-0.09-11.14-0.23-11.35,4.8c-0.21,5.03,7.73,5.05,7.73,5.05l19.6,0.24c0,0,9.24-1.14,9.24,2.48
		c-0.01,3.62-8.58,3.2-8.58,3.2s-25.11,0.44-29.55,1.62c-4.45,1.18-6.37,5.35-3.92,7.11c-1.13-5.14,13.48-5.67,22.96-5.46
		c9.48,0.21,22.64,0.34,22.51-6.84c-0.13-7.17-20.75-5.21-22.27-5.22c-1.53,0-15.32,1.56-14.66-2.4c0.67-3.96,14.05-2.4,15.99-2.51
		c1.94-0.11,14.89,1.13,14.85-4.9c-0.19-6.48-11.25-5.09-12.74-5.09c-1.48,0-6.56,0.39-6.64-1.14c-0.08-1.54,2.18-1.51,3.22-1.71
		c1.03-0.2,4.06-0.89,4.75-2.62c0.69-1.73-0.31-2.93-0.71-3.51c-0.4-0.58-2.45-2.32-1.91-3.68c6.21,5.01,23.07,14.41,23.07,14.41
		s-17.61-15.05-20-17.23C287.71,79.07,285.71,78.17,285.71,78.17z"/>
	<path d="M287.93,68.43c-0.28,2.29-1.18,3-1.18,3l10.76-3.4l-10.25-2.98C287.26,65.05,288.21,66.14,287.93,68.43z"/>
	<path d="M242.23,107.35c-1.72,3.6-15.25,17.11-15.25,17.11c2.84-1.27,13.59-7.85,15.65-10.61c0.79,1.16,7.51,5.63,10.01,4.95
		C246.58,115.43,242.23,107.35,242.23,107.35z"/>
	<path d="M266.55,105.08c-1.86-0.4-6.74-5.83-8.06-8.16c-0.72,1.95-8.43,13.52-8.43,13.52c3.1-1.51,9.39-7.53,9.39-7.53
		S264.11,105.34,266.55,105.08z"/>
	<path d="M315.75,99.79c4.91,4.34,9.83,6.15,9.83,6.15s-6.94-8.08-8.61-10.33c-1.07,1.37-7.85,8.36-7.85,8.36
		S312.95,102.56,315.75,99.79z"/>
	<path d="M280.48,39.14c-3.39,0.35-6.71,0.94-9.94,1.78c-6.45,1.66-12.53,4.26-18.09,7.64c-1.85,1.13-3.64,2.34-5.37,3.63
		c-3.46,2.59-6.66,5.5-9.56,8.69c-2.18,2.39-4.18,4.94-6,7.63c-0.61,0.9-1.19,1.81-1.75,2.73c-1.13,1.85-2.17,3.76-3.11,5.72
		c-0.47,0.98-0.92,1.98-1.35,2.98c-3.41,8.06-5.3,16.91-5.3,26.19s1.89,18.14,5.3,26.19c0.43,1.01,0.88,2,1.35,2.98
		c0.95,1.96,1.99,3.87,3.11,5.72c0.56,0.93,1.15,1.84,1.75,2.73c1.82,2.69,3.82,5.24,6,7.63c2.9,3.19,6.1,6.1,9.56,8.69
		c1.73,1.29,3.52,2.51,5.37,3.63c5.55,3.38,11.63,5.98,18.09,7.64c3.23,0.83,6.54,1.43,9.94,1.78c2.26,0.23,4.56,0.35,6.88,0.35
		c37.14,0,67.35-30.21,67.35-67.35s-30.21-67.35-67.35-67.35C285.04,38.79,282.75,38.91,280.48,39.14z M309.85,44.66
		c2,0.74,3.96,1.57,5.87,2.49c1.3,0.63,2.57,1.31,3.82,2.02c6.09,3.45,11.58,7.84,16.26,12.98c1.41,1.55,2.75,3.17,4,4.85
		s2.44,3.42,3.53,5.22c0.55,0.9,1.07,1.81,1.58,2.74c0.73,1.35,1.4,2.73,2.04,4.13c0.68,1.49,1.32,3.01,1.89,4.56
		c2.57,7.01,3.98,14.59,3.98,22.48s-1.41,15.47-3.98,22.48c-0.74,2-1.57,3.96-2.49,5.87c-4.14,8.58-10.1,16.13-17.38,22.14
		c-1.62,1.34-3.3,2.59-5.04,3.77c-0.87,0.59-1.76,1.16-2.66,1.7c-1.8,1.09-3.66,2.1-5.56,3.03c-1.91,0.92-3.87,1.75-5.87,2.49
		c-2,0.74-4.05,1.38-6.14,1.91c-5.22,1.35-10.7,2.06-16.34,2.06c-36.1,0-65.46-29.37-65.46-65.46c0-7.9,1.41-15.47,3.98-22.48
		c1.1-3.01,2.42-5.91,3.93-8.69c0.5-0.93,1.03-1.84,1.58-2.74c1.09-1.8,2.27-3.54,3.53-5.22s2.59-3.3,4-4.85
		c4.93-5.43,10.77-10.03,17.26-13.56c9.27-5.04,19.9-7.91,31.18-7.91c5.64,0,11.12,0.72,16.34,2.06
		C305.79,43.29,307.84,43.93,309.85,44.66z"/>
	<path d="M419.19,217.64c-3.2,2.54-18.05,16.71-21.15,20.97c0,0,24.5-19.34,29.33-24.12C425.63,214.35,422.39,215.1,419.19,217.64z"
		/>
	<path d="M469.39,196.55c0,0-4.75,11.04-5.82,13.68c-6.28,4.51-7.9,8.68-7.9,8.68s8.2-5.43,11.04-8.08
		c0.45-2.34,3.07-8.7,4.94-11.86c-0.24-3.01,1.25-12.98,1.66-15.87c3.36-3,21.11-13.02,26.94-17.72
		c-3.44,1.12-22.86,11.97-29.11,15.95C468.62,188.38,469.39,196.55,469.39,196.55z"/>
	<path d="M441.68,179.32c2.31,0.29,2.8,0.65,3.85,1.69c1.05,1.03,4.61,1.59,5.84,1.41c-1.29,3.6-7.88,4.73-10.09,1.75
		c-6.02,3.1-8.8,10.28-7.58,16.33c1.43-7.19,5.44-11.6,8.36-13.05c2.08,2.78,12.74,0.55,12.68-6.86c-2.38-0.15-5.58-1.62-6.71-2.32
		c-1.13-0.7-4.38-2.62-7.12-2.38c-2.53,3.18-6.9,5.38-11.77,5.72c-5.97,4.25-8.8,9.03-9.89,15.04c-0.39,1.67-3.1,3.56-4.93,4.47
		c-1.83,0.9-22.12,12.91-25.19,15.95c0,0,10.69-5.21,12.51-6.09c1.82-0.88,14.57-7.81,14.57-7.81s3.18-1.73,3.19-3.36
		c0.79,2.03,1.8,6.28,6.37,9.43c-3.57-4.31-6.38-15.86,4.52-24.86C434.55,185.46,439.73,182.13,441.68,179.32z"/>
	<path d="M450.64,218.34c-2.59,0.59-6.46,2.95-7.59,3.48c-0.1,0.41,0.35,0.89,0.35,0.89s4.66-1.2,7.62-2.24
		c10.49-9.47,10.7-20.89,10.7-20.89C460.69,203.52,455.81,213.27,450.64,218.34z"/>
	<path d="M442.34,173.69c-0.27,0.62,0.88,1,2.45,0.58c4.15-3.31,10.22-3.32,14.82-1.47c4.15-3.31,25.91-20.06,25.91-20.06
		c-3.96,1.38-19.83,10.75-26.79,16.64C447.45,165.76,442.62,173.07,442.34,173.69z"/>
	<path d="M456.87,197.83c-0.5,0.68-2.14,3.86-3.65,7.13c-1.51,3.27-7.49,10.37-9.36,11.93c-1.87,1.56-6.06,3.17-6.06,3.17
		s-0.44-0.11-1.01-0.69c-1.33,2.66,0.03,3.13,0.03,3.13s8.15-2.99,10.55-5.38C454.16,210.29,456.87,197.83,456.87,197.83z"/>
	<path d="M441.15,215.09c7.27-8.17,9.63-19.85,9.63-19.85s-4.79,9.17-6.46,12.13c-1.66,2.96-6.73,8.53-10.78,11.35
		c-0.76-3.61,4.12-6.52,6.73-12.96c2.61-6.44,2.28-15.15,2.28-15.15c-0.86,3.56-5.09,17.9-6.94,19.51
		c-4.18,4.12-7.28,9.44-4.58,11.77C432.2,221.42,439.65,216.85,441.15,215.09z"/>
	<path d="M459.15,131.29c-4.21-0.92-8.52-1.43-12.85-1.53c-7.58-0.17-15.25,0.93-22.68,3.4c-4.24,1.41-8.41,3.27-12.43,5.59
		c-3.9,2.25-7.51,4.84-10.82,7.74c-9.93,8.69-17.07,20.12-20.56,33.16c-1.16,4.34-1.89,8.74-2.18,13.13
		c-0.07,1.1-0.12,2.19-0.14,3.29c-0.04,2.19,0.03,4.38,0.21,6.56c0.27,3.27,0.78,6.51,1.52,9.7c1.49,6.39,3.94,12.59,7.31,18.44
		c12.46,21.58,35.14,33.66,58.44,33.66c7.14,0,14.33-1.13,21.31-3.48c1.39-0.47,2.78-0.98,4.16-1.55c1.38-0.57,2.74-1.18,4.09-1.84
		c1.35-0.66,2.69-1.38,4.01-2.14c9.05-5.22,16.42-12.24,21.94-20.35c1.23-1.8,2.36-3.66,3.4-5.56c2.6-4.75,4.62-9.79,6.01-15
		c0.56-2.08,1.02-4.19,1.37-6.32c0.18-1.06,0.33-2.13,0.46-3.2c0.26-2.14,0.41-4.3,0.46-6.47c0.17-7.58-0.93-15.25-3.4-22.68
		c-1.41-4.24-3.27-8.41-5.59-12.43c-6.96-12.06-17.12-21.15-28.79-26.83C469.54,134.21,464.42,132.44,459.15,131.29z M501.56,164.35
		c18.05,31.26,7.3,71.37-23.96,89.42c-2.84,1.64-5.77,3.05-8.76,4.24c-2,0.79-4.02,1.48-6.07,2.06c-2.05,0.59-4.12,1.07-6.21,1.45
		c-9.4,1.71-19.14,1.33-28.64-1.21c-7.39-1.98-14.25-5.17-20.36-9.39c-0.87-0.6-1.73-1.23-2.57-1.87
		c-6.73-5.17-12.45-11.66-16.82-19.23c-1.84-3.19-3.38-6.49-4.65-9.87c-0.5-1.32-0.95-2.66-1.36-4c-0.18-0.58-0.35-1.17-0.51-1.76
		c-1.33-4.87-2.09-9.86-2.25-14.9c-0.03-1.06-0.04-2.13-0.02-3.19c0.09-5.33,0.84-10.68,2.25-15.96c0.57-2.11,1.23-4.18,1.99-6.2
		c0.38-1.01,0.78-2.01,1.21-2.99c1.28-2.95,2.77-5.79,4.45-8.5c5.61-9.03,13.39-16.59,22.85-22.05c4.5-2.6,9.18-4.6,13.95-6.03
		c4.09-1.22,8.25-2.03,12.42-2.43c2.08-0.2,4.17-0.3,6.25-0.3C467.4,131.63,489.45,143.38,501.56,164.35z"/>
	<path d="M134.2,365.18c0,0,0.91-9.17,5.68-13.97c1.52-1.38,1.69-6.08,0.89-6.86c2.45,0.4,6.32,3,8.95,8.02
		c0.92,1.63,4.28,3.17,6.48,2.87c-2.07-4.07-5.88-10.39-15.89-11.78C137.48,345.01,131.95,357.56,134.2,365.18z"/>
	<path d="M121.56,345.27c2.33-0.02,4.65-0.05,6.98-0.17c2.33-0.11,4.65-0.28,6.98-0.59c-2.33-0.31-4.65-0.48-6.98-0.59
		c-2.33-0.12-4.65-0.15-6.98-0.17c-2.33,0.01-4.65,0.05-6.98,0.17c-2.33,0.11-4.65,0.28-6.98,0.59c2.33,0.32,4.65,0.48,6.98,0.59
		C116.91,345.23,119.24,345.26,121.56,345.27z"/>
	<path d="M129.42,409.77c-2.88-0.31-5.75-0.48-8.63-0.59c-2.88-0.12-5.75-0.15-8.63-0.17c-2.88,0.01-5.75,0.05-8.63,0.17
		c-2.88,0.11-5.75,0.28-8.63,0.59c2.88,0.32,5.75,0.48,8.63,0.59c2.88,0.12,5.75,0.15,8.63,0.17c2.88-0.02,5.75-0.05,8.63-0.17
		C123.67,410.25,126.54,410.09,129.42,409.77z"/>
	<path d="M139.84,366.51c0,0,8.52-9.36,16.6-6.01c4.44,1.93-0.73,7.02-4.69,8.4c-3.97,1.37-11.49,3.87-12.99,9.67
		c2.75-4.17,8.23-6.92,11.83-7.61c3.6-0.69,12.4-3.06,12.65-7.66c0.25-4.6-6.04-6.66-8.3-6.57
		C152.69,356.82,144.01,357.52,139.84,366.51z"/>
	<path d="M117.76,350.81c2.47-0.02,4.95-0.05,7.42-0.17c2.47-0.11,4.95-0.28,7.42-0.59c-2.47-0.31-4.95-0.48-7.42-0.59
		c-2.47-0.12-4.95-0.15-7.42-0.17c-2.47,0.01-4.95,0.05-7.42,0.17c-2.47,0.11-4.95,0.28-7.42,0.59c2.47,0.32,4.95,0.48,7.42,0.59
		C112.82,350.76,115.29,350.79,117.76,350.81z"/>
	<path d="M113.91,357.92c2.82-0.02,5.63-0.05,8.45-0.17c2.82-0.11,5.63-0.28,8.45-0.59c-2.82-0.31-5.63-0.48-8.45-0.59
		c-2.82-0.12-5.63-0.15-8.45-0.17c-2.82,0.01-5.63,0.05-8.45,0.17c-2.82,0.11-5.63,0.28-8.45,0.59c2.82,0.32,5.63,0.48,8.45,0.59
		C108.28,357.87,111.09,357.91,113.91,357.92z"/>
	<path d="M167.79,352.77c3.52,1.37,5.93,4.84,3.1,10.63c-0.12,0.26-1.76,2.19-4.03-0.02c-0.22,1.07,2.11,3.1,4.81,2.68
		c2.69-0.42,4.76-5.99,4.6-8.28c-0.16-2.29-4.37-7.95-11.67-7.1c-2.26,0.12-0.99,4.75-0.99,4.75S164.27,351.4,167.79,352.77z"/>
	<path d="M89.19,397.83c-0.66,0.25-3.15,0.9-3.15,0.9s-0.95,1.28-1.94,4.3c-0.99,3.02-4.99,6.2-4.99,6.2
		c4.95-0.54,9.1-7.15,9.59-8.39c0.49-1.24,1.91-3.22,1.91-3.22S89.85,397.58,89.19,397.83z"/>
	<path d="M110.33,366.2c3.32-0.02,6.63-0.05,9.95-0.17c3.32-0.11,6.63-0.28,9.95-0.59c-3.32-0.31-6.63-0.48-9.95-0.59
		c-3.32-0.12-6.63-0.15-9.95-0.17c-3.32,0.01-6.63,0.05-9.95,0.17c-3.32,0.11-6.63,0.28-9.95,0.59c3.32,0.32,6.63,0.48,9.95,0.59
		C103.7,366.16,107.02,366.19,110.33,366.2z"/>
	<path d="M131.96,380.71c-2.9,1.91-8.7,5.46-15.22,7.52c-3.67,1.06-9.66,1.27-14.34,3.11c-5.65,2.12-8.67,3.98-10.69,6.05
		c-0.61,0.71-0.32,0.72-0.32,0.72s11.53-5.61,23.75-6.92C118.81,390.49,129.58,384.95,131.96,380.71z"/>
	<path d="M156.94,378.97c0,0-1.77-0.88-9.76,3.79c-7.99,4.67-14.02,0.99-14.02,0.99c3.78,4.1,11.8,2.63,15.73,0.3
		C152.08,382.16,156.94,378.97,156.94,378.97z"/>
	<path d="M118.06,372.63c1.92-0.11,3.84-0.28,5.76-0.59c-1.92-0.31-3.84-0.48-5.76-0.59c-1.92-0.12-3.84-0.15-5.76-0.17
		c-1.92,0.01-3.84,0.05-5.76,0.17c-1.92,0.11-3.84,0.28-5.76,0.59c1.92,0.32,3.84,0.48,5.76,0.59c1.92,0.12,3.84,0.15,5.76,0.17
		C114.22,372.78,116.14,372.75,118.06,372.63z"/>
	<path d="M140.21,370.87c1.34-1.72-0.09-3.41-1.57-3.44c-3.28-0.03-3.95-1.33-3.95-1.33C134.32,369.56,138.88,372.59,140.21,370.87z
		"/>
	<path d="M138.93,390.44c-0.31,0.12-0.62,0.28-0.93,0.6c0.31,0.32,0.62,0.48,0.93,0.6c0.31,0.11,0.62,0.16,0.93,0.16
		c0.31,0,0.62-0.05,0.93-0.16c0.31-0.12,0.62-0.28,0.93-0.6c-0.31-0.32-0.62-0.47-0.93-0.6c-0.31-0.11-0.62-0.16-0.93-0.16
		C139.55,390.28,139.24,390.33,138.93,390.44z"/>
	<path d="M117.99,383.36c1.59-1.67,4.37-4.15,10.38-7.03s6.76-5.56,6.76-5.56s-2.82,1.62-6.68,2.98c-3.86,1.36-8.48,3.71-11.8,7.89
		c-3.32,4.19-6.06,5.58-6.06,5.58C114.69,386.53,116.4,385.04,117.99,383.36z"/>
	<path d="M110.45,380.15c0.66,0,1.31-0.05,1.97-0.16c0.66-0.12,1.31-0.28,1.97-0.6c-0.66-0.32-1.31-0.47-1.97-0.6
		c-0.66-0.11-1.31-0.16-1.97-0.16c-0.66,0-1.31,0.05-1.97,0.16c-0.66,0.12-1.31,0.28-1.97,0.6c0.66,0.32,1.31,0.48,1.97,0.6
		C109.14,380.1,109.8,380.15,110.45,380.15z"/>
	<path d="M119.24,403.22c-2.16,0.01-4.31,0.05-6.47,0.17c-2.16,0.11-4.31,0.28-6.47,0.59c2.16,0.32,4.31,0.48,6.47,0.59
		c2.16,0.12,4.31,0.15,6.47,0.17c2.16-0.02,4.31-0.05,6.47-0.17c2.16-0.11,4.31-0.28,6.47-0.59c-2.16-0.31-4.31-0.48-6.47-0.59
		C123.55,403.27,121.4,403.24,119.24,403.22z"/>
	<path d="M160.74,376.59c-4.58-3.39-14.91-2.22-21.32,2.66c0,0,6.02-3.57,10.63-3.19c4.61,0.37,9.61,1.54,9.26,6.03
		c0,0,0.08,2.92-15.69,15.28c0,0,5.45-2.11,11.67-7.31C161.52,384.85,165.32,379.99,160.74,376.59z"/>
	<path d="M167.89,371.77c0,0-5.02-2.26-6.62-1.34c2.94,5.53,10.85,10.93,17.44,11.84c2.51-2.6,4.41-5.85,6.52-11.32
		c2.11-5.47,0.91-8.01,0.91-8.01c-0.64,4.39-2.9,8.29-4.79,10.28c-1.89,1.99-2.94,3.71-2.84,4.63c0.04,1.3,0.52,2.09-0.15,3.45
		C173.98,379.29,167.89,371.77,167.89,371.77z"/>
	<path d="M183.32,360.62c1.85-0.26,2.64,1.17,2.64,1.17s-0.81-4.06-3.29-4.71c-1.5-0.28-2.49,1.33-2.43,2.26
		S181.47,360.88,183.32,360.62z"/>
	<path d="M127.47,394.9c0.89,0.32,1.78,0.48,2.67,0.6c0.89,0.11,1.78,0.16,2.67,0.16c0.89,0,1.78-0.05,2.67-0.16
		c0.89-0.12,1.78-0.28,2.67-0.6c-0.89-0.32-1.78-0.47-2.67-0.6c-0.89-0.11-1.78-0.16-2.67-0.16c-0.89,0-1.78,0.05-2.67,0.16
		C129.25,394.42,128.36,394.58,127.47,394.9z"/>
	<path d="M137.58,399.48c-0.42,0.48-0.77,1.94-1.09,3.35s-1.6,4.49-4.21,6.96c4.47-2.85,5.78-4.69,7.22-7.3
		c1.45-2.6,2.94-4.16,2.94-4.16C140.38,398.2,138,399,137.58,399.48z"/>
	<path d="M119.9,398.87c-1.56,0.11-3.13,0.28-4.69,0.59c1.56,0.32,3.13,0.48,4.69,0.59c1.56,0.11,3.13,0.17,4.69,0.17
		c1.56,0,3.13-0.06,4.69-0.17c1.56-0.11,3.13-0.28,4.69-0.59c-1.56-0.31-3.13-0.48-4.69-0.59c-1.56-0.11-3.13-0.17-4.69-0.17
		C123.03,398.7,121.46,398.76,119.9,398.87z"/>
	<path d="M114.6,444.56c4.37,1.02,8.77,1.6,13.17,1.74c0.73,0.02,1.46,0.04,2.2,0.04c5.11,0,10.18-0.59,15.15-1.75
		c2.84-0.66,5.64-1.51,8.39-2.55c1.37-0.52,2.74-1.08,4.08-1.69c2.02-0.92,4.01-1.94,5.95-3.06c4.87-2.81,9.3-6.16,13.24-9.97
		c0.79-0.76,1.56-1.54,2.3-2.34c1.5-1.6,2.91-3.26,4.24-4.99c5.32-6.93,9.27-14.9,11.59-23.59c0.58-2.17,1.05-4.36,1.42-6.55
		c0.36-2.19,0.62-4.39,0.76-6.58c0.15-2.19,0.18-4.39,0.11-6.57c-0.07-2.19-0.25-4.36-0.53-6.53c-0.62-4.73-1.77-9.38-3.4-13.91
		c-0.86-2.39-1.86-4.74-3-7.04c-0.65-1.32-1.34-2.64-2.08-3.93c-0.56-0.97-1.15-1.93-1.75-2.87c-9.07-14.08-22.85-24.15-39.15-28.51
		c-3.26-0.87-6.54-1.5-9.84-1.88c-2.19-0.25-4.39-0.4-6.58-0.44c-3.29-0.06-6.57,0.13-9.81,0.56c-2.16,0.29-4.31,0.68-6.44,1.17
		c-2.13,0.5-4.24,1.1-6.32,1.81s-4.14,1.52-6.16,2.44s-4.01,1.94-5.96,3.06c-4.87,2.81-9.3,6.16-13.24,9.97
		c-3.94,3.81-7.38,8.08-10.27,12.72c-1.15,1.86-2.22,3.78-3.19,5.75c-0.49,0.99-0.95,1.99-1.39,3c-0.88,2.03-1.66,4.11-2.34,6.23
		c-0.34,1.06-0.66,2.14-0.95,3.22c-2.04,7.6-2.73,15.35-2.1,22.97c0.8,9.8,3.77,19.37,8.83,28.14c4.5,7.79,10.38,14.47,17.3,19.79
		c6.93,5.32,14.9,9.27,23.59,11.59C113.15,444.21,113.87,444.39,114.6,444.56z M89.98,430.92c-1.68-1.29-3.3-2.67-4.85-4.12
		c-1.55-1.45-3.03-2.99-4.44-4.59c-1.23-1.41-2.4-2.89-3.52-4.41c-1.43-1.95-2.78-3.98-4-6.11c-2.04-3.53-3.71-7.2-5.05-10.96
		c-0.18-0.51-0.36-1.02-0.53-1.54c-2.24-6.86-3.34-14.01-3.21-21.21c0.04-2.13,0.18-4.26,0.42-6.4s0.6-4.26,1.06-6.38
		c0.23-1.06,0.49-2.12,0.77-3.17c1.98-7.39,5.17-14.25,9.39-20.36c5.43-7.86,12.59-14.47,21.11-19.39c1.89-1.09,3.82-2.08,5.78-2.97
		c0.65-0.3,1.31-0.58,1.97-0.86c1.32-0.55,2.66-1.05,4.01-1.51c6.74-2.29,13.77-3.46,20.86-3.46c2.13,0,4.27,0.11,6.41,0.32
		c2.14,0.21,4.27,0.53,6.4,0.95c1.42,0.28,2.83,0.61,4.24,0.99c2.11,0.57,4.18,1.23,6.2,1.99c2.02,0.76,3.99,1.61,5.91,2.56
		c1.92,0.94,3.78,1.98,5.59,3.1c7.22,4.49,13.51,10.36,18.53,17.38c1.26,1.75,2.43,3.58,3.53,5.47c1.64,2.84,3.05,5.77,4.24,8.76
		c0.79,2,1.48,4.02,2.06,6.07c0.35,1.24,0.66,2.48,0.94,3.74c0.41,1.86,0.76,3.73,1.01,5.62c0.28,2.11,0.45,4.24,0.52,6.37
		c0.14,4.24-0.14,8.51-0.85,12.76c-0.35,2.13-0.81,4.25-1.38,6.36c-1.41,5.28-3.44,10.29-6.03,14.94c-1.55,2.79-3.3,5.46-5.24,7.99
		c-0.65,0.84-1.31,1.67-2,2.48c-1.37,1.62-2.83,3.17-4.36,4.65c-0.77,0.74-1.55,1.46-2.35,2.17c-1.61,1.41-3.29,2.74-5.04,4
		c-1.75,1.26-3.58,2.43-5.47,3.53c-2.84,1.64-5.77,3.05-8.76,4.24c-5.99,2.37-12.24,3.83-18.59,4.35c-1.06,0.09-2.12,0.15-3.18,0.18
		s-2.13,0.04-3.19,0.02c-5.33-0.09-10.68-0.84-15.95-2.25c-3.17-0.85-6.24-1.92-9.19-3.2C98.8,436.86,94.19,434.15,89.98,430.92z"/>
	<path d="M478.07,426.96c5.12,0.22,6.46-13.08,6.31-21.05c-0.15-7.98,2.03-27.65,2.03-27.65s-3.21,16.57-7.99,27.73
		C473.63,417.15,472.95,426.74,478.07,426.96z M482.43,413.57c0,3.04-2.17,10.4-4.65,10.42c-2.48,0.02-0.72-8.25,0.5-11.68
		c1.22-3.43,4.44-12.6,4.69-14.99C482.97,397.32,482.42,410.52,482.43,413.57z"/>
	<path d="M405.53,378.64c0,0,2.45,16.53,1.65,28.52c-0.8,11.99,1.71,21.17,6.57,19.69c4.85-1.48,1.74-14.33-1.02-21.73
		C409.97,397.72,405.53,378.64,405.53,378.64z M412.5,424.17c-2.31,0.84-3.38-7.46-3.37-11.07c0.01-3.6,0.01-13.23-0.55-15.54
		c0,0,3.83,12.51,4.83,15.35C414.42,415.75,414.81,423.34,412.5,424.17z"/>
	<path d="M449.43,345.09c0,0-1.01-4.62,1.59-5.81c2.6-1.19,4.8,0.61,4.8,0.61l2.13-0.14c0,0-2.89-3.57-7.68-1.7
		C447.09,339.28,447.84,344.67,449.43,345.09z"/>
	<path d="M460.45,362.69c-6.69-5.93-13.53-1.05-15.04,0.65c-4.65,5.25,0.32,11.16,0.32,11.16c4.56,5.79,10.35,3.34,12.03,2.02
		C459.44,375.21,466.18,367.43,460.45,362.69z M455.69,375.85c-1.91,1.53-6.62,1.48-9.05-3.14c-2.43-4.62-0.72-7.3-0.16-8.19
		c1.14-1.8,5.4-4.2,10.06,0.97C460.65,370.07,457.6,374.32,455.69,375.85z M459.91,372c0.74-2.96-0.87-5.7-2.89-7.72
		c-2.02-2.02-4.8-3.17-8.77-2.02c0,0,4.91-3.88,10.79,1.17C461.62,365.68,461.89,369.09,459.91,372z"/>
	<path d="M409.46,369.32c-1.06-2.26-1.71-4.79-2.4-8.72c-0.64-3.66-1.09-13.3-1.09-13.3s-0.64,4.07-0.59,7.6
		c0.05,3.52,0.91,10.12,1.22,11.15s0.9,6.13-3.06,6.95c-7.52,1.17-8.25-6.97-8.52-10.61c-0.28-3.64-0.06-14.79-0.06-14.79
		c-1.18,1.82-3.13,17.1-0.25,23.03c2.88,5.93,7.43,6.27,10.93,5.45S410.52,371.57,409.46,369.32z"/>
	<path d="M445.19,336.73c3.49,0.42,4.12-0.06,4.12-0.06s-5.91-3.3-10.79,1.21C438.52,337.88,441.7,336.3,445.19,336.73z"/>
	<path d="M399.06,367.93c0.93-0.34,0.93-1.29,0.66-2.75c-0.27-1.46-0.66-4.73-0.68-8.07c-0.02-3.34-0.73-10.2-0.73-10.2
		c-0.76,4.97-1.09,15.25-0.86,17.56C397.68,366.78,398.13,368.26,399.06,367.93z"/>
	<path d="M424.84,364.5c0,0,2.67,19.51,24.55,15.89C439.07,380.09,430,377.07,424.84,364.5z"/>
	<path d="M403.83,367.46c1.22-0.55-0.1-3.82-0.34-4.92c-0.24-1.1-0.35-3.57-0.4-5.73c-0.05-2.16-0.85-9.97-0.85-9.97
		s-0.81,14.74-0.81,17.38C401.43,366.86,402.61,368.01,403.83,367.46z"/>
	<path d="M444.2,324.6c-17.48,0-31.65,14.17-31.65,31.65s14.17,31.65,31.65,31.65s31.65-14.17,31.65-31.65S461.68,324.6,444.2,324.6
		z M445.02,385.88c-16.02,0-29-12.98-29-29c0-16.02,12.98-29,29-29c16.02,0,29,12.98,29,29
		C474.02,372.9,461.04,385.88,445.02,385.88z"/>
	<path d="M436.08,365.97c0,0,1.65,0.89,1.69,4.14c0.04,3.26-2.37,5.24-2.88,5.41c-0.51,0.17,0.68,1.52,0.68,1.52
		s3.55-0.72,4.31-4.14c0.76-3.42-0.04-5.54-1.94-7.61c3-2.16,7.02-6.17,5.54-13.44c-1.48-7.27-5.75-6.17-8.03-10.15
		c-2.71-5.24,2.2-7.95,2.2-7.95c-12.85,3.97-16.53,16.74-14.16,25.37C425.85,367.75,436.08,365.97,436.08,365.97z M427.31,362.13
		c0,0,4.06,0.44,5.99-0.01c1.13,1.19,2.38,2.78,2.38,2.78S430.22,365.9,427.31,362.13z M442.05,355.37
		c-0.24,6.7-4.86,8.89-4.86,8.89l-1.3-1.56c0,0-1.54-6.57,4.64-9.71c-3.53,0.3-5.7,3.9-6.37,7.41c-1.17-1.37-2.75-4.53-1.47-7.61
		c1.28-3.08,2.88-5.88,5.03-6.5C437.72,346.29,442.29,348.68,442.05,355.37z M437.02,345.51c-2.45,0.52-6.37,6.59-5.9,9.63
		c-0.74-1.24-1.13-3.21-1.17-3.77c-0.04-0.56,1.65-6.76,4.16-8.76C434.12,342.6,435.55,344.4,437.02,345.51z M434.39,335.92
		c0.09-0.04-1.94,2.42-0.78,5.8c-2.09,1.72-3.99,5.74-4.36,7.72C429.26,349.44,428.48,339.22,434.39,335.92z M429.8,339.76
		c0,0-1.97,3.82-1.43,9.63c-1.24-0.65-1.86-0.15-2.65-0.04c1.02,0.78,2.36,1.21,2.99,2.51c0.37,1.67,1.3,4.51,1.3,4.51
		s-0.95,0.17-2.25-0.17c-1.3-0.35-2.64,0.09-2.64,0.09s0.89,1.41,2.69,1.52c1.8,0.11,2.47-0.56,2.47-0.56s1.24,2.62,2.56,4.21
		c-2.02,0.37-5.39,0.01-6.21-0.13c-0.73-1.22-2.42-3.01-2.4-8.69S428.65,340.65,429.8,339.76z"/>
	<path d="M460.9,352.07c-11.69-6.71-15.19,5.68-13.11,8.06c0,0,0.78-0.31,0.83-0.76c0.05-0.45-0.7-4.2,4.8-4.87s7,6.64,7,6.64
		l1.62,1.44c0,0,0.16-2.98-2.09-6.06s-7.03-4.62-10.57-1.33c2.15-3.73,7.47-3.84,10.39-1.8s3.77,6.69,3.03,9.74
		c-0.4,1.8,1.14,0.83,1.57-0.18C464.8,361.93,466.24,355.62,460.9,352.07z"/>
	<path d="M460.61,341.39c-2.4-1.15-7.59-1.01-9.56,3.25c-1.97,4.26,0.29,6.13,0.29,6.13s-0.74-3.01,1.23-4.65
		c2.51-1.93,7.25,0.34,8.31,1.57c1.06,1.23,1.15,2.94,2.07,3.37c0.49-7.07-8.15-7.38-10.46-6.17c4.51-4.94,9.02-1.24,10.82,0.83
		c1.8,2.07,2.31,6.28,2.52,7.65C468.98,348.22,463.01,342.54,460.61,341.39z"/>
	<path d="M493.84,348.04c-3.08-1.53-12.17-0.71-15,9.76c-2.74,10.93,3.92,15.2,3.92,15.2c4.13,3.64,14.06,2.33,17.24-7.38
		C504.19,352.18,493.84,348.04,493.84,348.04z M497.79,364.1c-2.42,6.77-8.01,8.18-11.95,6.37c-3.94-1.8-5.76-7.59-4.15-12.18
		c2.73-7.78,7.63-10.07,11.55-8.25C497.17,351.87,500.21,357.32,497.79,364.1z"/>
	<path d="M511.27,367.85c-3.22-19.15-14.63-36.78-32.72-47.22c-2.01-1.16-4.06-2.21-6.13-3.14c-9.33-4.19-19.23-6.08-28.98-5.86
		c-1.08,0.02-2.16,0.08-3.24,0.15c-2.16,0.15-4.3,0.41-6.43,0.77c-2.88,0.48-5.72,1.17-8.51,2.02c-1.33,0.41-2.66,0.84-3.97,1.33
		c-1.56,0.58-3.09,1.24-4.61,1.94c-0.96,0.44-1.9,0.9-2.84,1.39c-7.13,3.69-13.66,8.66-19.18,14.84c-3.03,3.39-5.76,7.13-8.12,11.22
		c-3.26,5.64-5.64,11.62-7.14,17.78c-0.57,2.34-1.03,4.71-1.34,7.1c-0.14,1.08-0.26,2.17-0.35,3.26c-0.18,2.18-0.25,4.36-0.21,6.56
		c0.02,1.1,0.06,2.19,0.14,3.29c0.29,4.39,1.01,8.78,2.18,13.13c2.49,9.29,6.85,17.75,12.73,25c1,1.23,2.02,2.43,3.1,3.58
		c0.75,0.8,1.52,1.58,2.3,2.34c3.94,3.81,8.38,7.16,13.24,9.97c1.95,1.12,3.93,2.14,5.95,3.06c1.35,0.61,2.71,1.18,4.08,1.69
		c1.15,0.43,2.32,0.83,3.49,1.2c0.38,0.12,0.76,0.24,1.14,0.35c1.24,0.37,2.5,0.71,3.76,1c2.84,0.66,5.71,1.14,8.6,1.42
		c2.17,0.21,4.35,0.32,6.54,0.32c5.85,0,11.74-0.77,17.54-2.32c8.69-2.33,16.66-6.28,23.59-11.59c2.17-1.66,4.22-3.48,6.17-5.4
		c1.3-1.28,2.55-2.6,3.74-3.99c1.32-1.53,2.58-3.11,3.76-4.77c0.65-0.9,1.27-1.82,1.88-2.76c0.6-0.94,1.19-1.9,1.75-2.87
		c1.16-2.01,2.21-4.06,3.14-6.13c0.93-2.07,1.75-4.18,2.45-6.3c2.12-6.36,3.23-12.91,3.4-19.42c0.06-2.17,0.01-4.34-0.15-6.5
		C511.88,372.12,511.63,369.98,511.27,367.85z M501.56,411.69c-0.55,0.95-1.11,1.88-1.7,2.79c-0.73,1.14-1.51,2.24-2.3,3.32
		c-0.77,1.05-1.57,2.07-2.4,3.06c-2.35,2.83-4.91,5.46-7.68,7.83c-0.89,0.77-1.8,1.51-2.73,2.23c-0.84,0.65-1.7,1.27-2.57,1.87
		c-1.75,1.21-3.55,2.33-5.42,3.36c-0.93,0.52-1.88,1.01-2.84,1.48c-3.84,1.89-7.88,3.41-12.11,4.55
		c-6.33,1.69-12.76,2.43-19.12,2.22c-0.07,0-0.13-0.01-0.2-0.01c-5.25-0.18-10.46-1-15.53-2.45c-1.02-0.29-2.04-0.61-3.05-0.96
		c-1.44-0.49-2.86-1.05-4.28-1.64c-2.55-1.07-5.06-2.29-7.5-3.7c-15.14-8.74-25.97-22.86-30.5-39.75c-0.28-1.06-0.54-2.11-0.77-3.17
		c-0.43-1.99-0.76-3.99-1-5.99c-0.03-0.23-0.06-0.46-0.08-0.68c-0.22-1.99-0.35-3.98-0.39-5.97c0-0.04,0-0.09-0.01-0.13
		c-0.14-8.52,1.39-16.98,4.55-24.96c1.18-2.99,2.6-5.92,4.24-8.76c3.41-5.9,7.6-11.07,12.37-15.45c1.06-0.97,2.15-1.91,3.26-2.8
		c2.23-1.79,4.56-3.42,6.99-4.9c4.84-2.94,10.03-5.23,15.43-6.83c1.35-0.4,2.71-0.76,4.08-1.07c1.37-0.31,2.75-0.58,4.14-0.81
		c1.39-0.23,2.79-0.41,4.19-0.54c1.4-0.14,2.81-0.23,4.22-0.27c0.71-0.02,1.41-0.03,2.12-0.03c11.1,0,22.34,2.82,32.62,8.76
		C508.86,340.31,519.61,380.43,501.56,411.69z"/>
	<path d="M297.58,468.91c0,0,9.16,9,7.99,13.88c-1.17,4.88-4.93,7.73-14.15,11.54c0,0,16.98-2.91,17.98-11.4
		C310.22,476.26,297.58,468.91,297.58,468.91z"/>
	<path d="M302.57,493.99c1.71-0.16,11.15,1.12,11.15,1.12C312.69,493.34,305.63,491.61,302.57,493.99z"/>
	<path d="M349.68,475.81c0,0-2.83,5.14-4.88,7.83c-3.57,4.67-10.56,11.63-21.8,16.32c1.42-3.45,0.82-7.67-2.42-10.33
		c-3.24-2.76-6.04-2.82-10.25-2.48c0,0,9.88-0.07,9.03,8.26c-0.85,8.33-13.51,7.85-18.75,6.48c-4.6-1.2-11.12-5.22-12.64-6.18v-0.01
		c0,0-0.01,0.01-0.01,0.01c0,0-0.01-0.01-0.01-0.01v0.01c-1.52,0.96-8.04,4.97-12.64,6.18c-5.23,1.37-17.9,1.85-18.75-6.48
		c-0.85-8.33,9.03-8.26,9.03-8.26c-4.22-0.34-7.02-0.28-10.25,2.48c-3.24,2.67-3.84,6.88-2.42,10.33
		c-11.24-4.69-18.23-11.65-21.8-16.32c-2.05-2.68-4.88-7.83-4.88-7.83s6.74,23.42,31.01,28.91c0.02-0.01,0.04-0.01,0.06-0.02
		c0.34,0.16,0.68,0.32,1.04,0.44c12.61,4.37,27.92-6.81,29.6-8.09c1.68,1.27,17,12.46,29.6,8.09c0.36-0.13,0.71-0.28,1.04-0.44
		c0.02,0.01,0.04,0.01,0.06,0.02C342.94,499.23,349.68,475.81,349.68,475.81z"/>
	<path d="M269.43,474.04c0.3-0.42,0.44-0.82,0.51-1.32c0.78-15.99,7.33-26.85,11.81-32.26c1.81-2.19,5.19-5.3,6.22-6.23
		c1.03,0.93,4.4,4.05,6.22,6.23c4.48,5.4,11.03,16.27,11.81,32.26c0.07,0.5,0.2,0.89,0.51,1.32c15.17-5.64,27.86-3.81,34.62-1.77
		c3.23,0.97,8.54,3.48,8.54,3.48s-18.49-14.46-40.82-5.75c-0.26-22.66-18.26-34.29-20.86-35.86v-0.01c0,0-0.01,0.01-0.01,0.01
		c0,0-0.01-0.01-0.01-0.01v0.01c-2.6,1.56-20.6,13.2-20.86,35.86c-22.33-8.71-40.82,5.75-40.82,5.75s5.31-2.51,8.54-3.48
		C241.58,470.23,254.26,468.4,269.43,474.04z"/>
	<path d="M315.3,481.79c-4.86,3.19-5.08,3.19,0.55,1.17c10.28-3.44,20.8-7.44,31.8-6.84C337.71,472.02,324.11,476.57,315.3,481.79z"
		/>
	<path d="M288.84,492.57c10.15-4.3,10.8-16.91,7.51-22.29c-2.76-4.51-7.05-5.1-8.38-5.18v0c0,0-0.01,0-0.01,0c0,0-0.01,0-0.01,0v0
		c-1.32,0.08-5.62,0.67-8.38,5.18c-3.29,5.38-2.64,17.99,7.51,22.29c0,0-6.18-3.44-5.69-13.38c0.4-8.03,3.99-11.22,6.57-11.65
		c2.58,0.43,6.17,3.62,6.57,11.65C295.02,489.13,288.84,492.57,288.84,492.57z"/>
	<path d="M270.35,482.79c-1.17-4.88,7.99-13.88,7.99-13.88s-12.64,7.35-11.82,14.03c1,8.49,17.98,11.4,17.98,11.4
		C275.28,490.52,271.52,487.68,270.35,482.79z"/>
	<path d="M287.96,443.88c0,0-0.01,0-0.01,0v0c-1.37,0.09-8.85,0.99-8.2,10.2c0.3,4.35,3.49,8.39,6.29,9.53c0,0-4.46-4.09-3.61-10.7
		c1.13,0.33,5.98,3.63,4.36,6.47c0,0,0.45,0.28,1.16,0.36v0c0,0,0.01,0,0.01,0c0,0,0.01,0,0.01,0v0c0.72-0.08,1.16-0.36,1.16-0.36
		c-1.61-2.84,3.23-6.14,4.36-6.47c0.85,6.61-3.61,10.7-3.61,10.7c2.8-1.14,5.99-5.18,6.29-9.53c0.64-9.21-6.83-10.11-8.2-10.2v0
		C287.97,443.88,287.96,443.88,287.96,443.88z M293.25,452.08c-1.52,0.14-3.99,1.22-4.42,1.76c-0.3,0.38-0.67,0.54-0.87,0.6
		c-0.2-0.06-0.57-0.22-0.87-0.6c-0.42-0.54-2.89-1.62-4.42-1.76c0.24-1.73,2.08-4.87,5.28-5.09
		C291.17,447.21,293,450.34,293.25,452.08z"/>
	<path d="M228.27,476.12c11-0.6,21.52,3.4,31.8,6.84c5.64,2.01,5.41,2.01,0.55-1.17C251.81,476.57,238.21,472.02,228.27,476.12z"/>
	<path d="M262.2,495.11c0,0,9.44-1.28,11.15-1.12C270.29,491.61,263.23,493.34,262.2,495.11z"/>
	<path d="M343.2,507.52c1.21-1.79,2.34-3.64,3.38-5.55s1.99-3.87,2.84-5.89s1.61-4.08,2.27-6.19c1.97-6.32,3.03-13.04,3.03-20.01
		c0-37.14-30.21-67.35-67.35-67.35c-2.32,0-4.62,0.12-6.88,0.35c-3.39,0.35-6.71,0.94-9.94,1.78c-6.45,1.66-12.53,4.26-18.09,7.64
		c-1.85,1.13-3.64,2.34-5.37,3.63c-3.46,2.59-6.66,5.5-9.56,8.69c-2.18,2.39-4.18,4.94-6,7.63c-0.61,0.9-1.19,1.81-1.75,2.73
		c-1.13,1.85-2.17,3.76-3.11,5.72c-0.47,0.98-0.92,1.98-1.35,2.98c-3.41,8.06-5.3,16.91-5.3,26.19s1.89,18.14,5.3,26.19
		c0.43,1.01,0.88,2,1.35,2.98c4.26,8.83,10.4,16.6,17.88,22.78c0.83,0.69,1.68,1.35,2.55,2c1.73,1.29,3.52,2.51,5.37,3.63
		c0.93,0.56,1.87,1.1,2.82,1.62c2.86,1.56,5.85,2.91,8.94,4.05c2.06,0.76,4.17,1.41,6.32,1.97c3.23,0.83,6.54,1.43,9.94,1.78
		c2.26,0.23,4.56,0.35,6.88,0.35c8.12,0,15.92-1.45,23.13-4.09c3.09-1.13,6.08-2.49,8.94-4.05c0.95-0.52,1.89-1.06,2.82-1.62
		c1.85-1.13,3.64-2.34,5.37-3.63c0.86-0.65,1.71-1.31,2.55-2c3.33-2.75,6.39-5.81,9.14-9.14
		C340.69,511.05,341.98,509.31,343.2,507.52z M287.36,535.35c-25.94,0-48.41-15.17-59-37.11c-0.92-1.91-1.75-3.87-2.49-5.87
		c-0.74-2-1.38-4.05-1.91-6.14c-1.35-5.22-2.06-10.7-2.06-16.34c0-36.09,29.37-65.46,65.46-65.46c5.64,0,11.12,0.72,16.34,2.06
		c2.09,0.54,4.14,1.18,6.14,1.91c2,0.74,3.96,1.57,5.87,2.49c1.91,0.92,3.76,1.93,5.56,3.03c0.9,0.55,1.79,1.12,2.66,1.7
		c1.74,1.18,3.42,2.44,5.04,3.77c7.28,6.01,13.24,13.56,17.38,22.14c0.92,1.91,1.75,3.87,2.49,5.87c2.57,7.01,3.98,14.59,3.98,22.48
		c0,5.64-0.72,11.12-2.06,16.34c-0.54,2.09-1.18,4.14-1.91,6.14c-0.74,2-1.57,3.96-2.49,5.87
		C335.77,520.18,313.3,535.35,287.36,535.35z"/>
</g>
</svg>
