<svg width="27" height="32" viewBox="0 0 27 32" fill="none" xmlns="http://www.w3.org/2000/svg">
<path d="M1 15.14C1 14.0243 1.90439 13.12 3.02 13.12H24.23C25.3456 13.12 26.25 14.0243 26.25 15.14V26.25C26.25 28.4813 24.4413 30.29 22.21 30.29H5.04C2.80877 30.29 1 28.4813 1 26.25V15.14Z" stroke="#FFFAFA" stroke-width="1.5" stroke-linecap="round" stroke-linejoin="round"/>
<path d="M5.04023 12.615V12.2973C5.04023 9.14357 4.85049 5.62833 7.05308 3.37128C8.30918 2.08413 10.3417 1 13.6252 1C16.9087 1 18.9413 2.08413 20.1973 3.37128C22.3999 5.62833 22.2102 9.14357 22.2102 12.2973V12.615" stroke="#FFFAFA" stroke-width="1.5" stroke-linecap="round" stroke-linejoin="round"/>
</svg>
