<svg width="82" height="78" viewBox="0 0 82 78" fill="none" xmlns="http://www.w3.org/2000/svg">
<path d="M14.6128 23.9187C14.6128 10.6903 25.3031 0 38.5452 0C51.815 0 62.4018 10.7179 62.3949 24.1463C62.3949 37.1677 51.5943 47.7891 38.359 47.7822C25.3238 47.7753 14.6128 37.016 14.6128 23.9187ZM39.1315 2.4898C27.0549 2.53808 17.1923 12.3731 17.275 24.4083C17.3647 37.1953 27.9446 46.4235 39.6488 46.2166C51.3736 46.0027 61.0018 36.1608 60.9535 24.098C60.919 12.2697 50.9874 2.44842 39.1315 2.4898Z" fill="white"/>
<path d="M81.3406 26.4846C81.1889 30.0365 80.3061 33.2988 77.5197 35.7472C75.5265 37.499 73.1539 38.2439 70.54 37.8301C67.5743 37.3611 65.6983 35.3954 64.8086 32.6849C63.2913 28.0778 64.112 23.7672 67.2777 20.0773C69.0985 17.953 71.5745 16.9392 74.3885 17.2978C77.3266 17.6702 79.1681 19.629 80.4578 22.1464C81.1337 23.4913 81.3889 24.9603 81.3406 26.4846ZM79.5612 25.8776C79.6026 24.0224 78.637 21.7257 76.9886 20.2359C75.0575 18.4841 72.5194 18.2013 70.5745 19.829C67.4433 22.4498 65.7811 25.8087 66.5949 29.9813C67.0846 32.4918 68.4709 34.423 71.1607 34.9747C73.8091 35.5196 75.9265 34.4988 77.5128 32.3884C78.8577 30.5952 79.4647 28.5261 79.5612 25.8776Z" fill="white"/>
<path d="M70.2021 41.6716C69.9676 44.2166 69.671 46.7616 69.5193 49.3135C69.2503 53.762 69.0503 58.2174 68.8572 62.6729C68.7192 65.9765 68.5951 69.2871 67.6916 72.4873C67.3674 73.639 66.8709 74.7632 66.3053 75.8254C65.8018 76.7634 64.9535 77.3634 63.7879 77.2048C62.5602 77.0392 61.9119 76.2116 61.6223 75.1012C61.0636 72.9632 61.2705 70.7906 61.8844 68.7353C62.8223 65.6041 63.9396 62.528 65.0707 59.4589C67.1881 53.7137 68.7261 47.8099 70.0297 41.8372C70.0435 41.7613 70.0779 41.6923 70.1055 41.6165C70.14 41.6371 70.1676 41.6509 70.2021 41.6716ZM67.6709 55.8035C67.5399 56.1208 67.4709 56.2725 67.4226 56.4242C66.4984 59.2796 65.6018 62.1418 64.6362 64.9834C63.7534 67.5766 62.9534 70.1699 62.9258 72.9425C62.9189 73.6735 62.7878 74.6184 63.6569 74.8667C64.5397 75.115 65.0087 74.2874 65.4018 73.6322C66.4364 71.9079 67.0916 70.0112 67.2088 68.018C67.4433 64.0247 67.5192 60.0313 67.6709 55.8035Z" fill="white"/>
<path d="M9.53662 42.0992C11.0953 47.6996 12.6678 53.7413 14.4817 59.7141C15.5577 63.2453 16.8888 66.7007 17.275 70.3906C17.4405 71.9286 17.3578 73.5218 17.1991 75.0667C17.0888 76.1702 16.4129 77.0186 15.2197 77.2255C14.0403 77.4324 13.1989 76.8461 12.5713 75.922C11.4195 74.2322 11.0608 72.2804 10.7643 70.3147C10.2746 67.0456 10.6194 63.7695 10.6057 60.5003C10.585 56.4587 10.3918 52.4102 10.178 48.3686C10.0608 46.1133 9.72974 43.8787 9.53662 42.0992ZM12.054 56.4449C12.0126 56.4518 11.9781 56.4587 11.9368 56.4725C11.9299 56.576 11.9092 56.6794 11.9092 56.7829C11.9713 60.39 11.9299 64.0109 12.1437 67.6111C12.2609 69.6526 12.7368 71.6872 13.192 73.6942C13.3162 74.2322 13.93 74.9909 14.399 75.046C15.1852 75.1426 15.4128 74.2529 15.5853 73.5908C16.0405 71.8252 16.0611 70.0044 15.6266 68.2663C14.9714 65.6524 14.1024 63.1005 13.3162 60.521C12.9023 59.1485 12.4747 57.7967 12.054 56.4449Z" fill="white"/>
<path d="M9.65391 17.6838C9.91599 20.6633 10.0332 23.6635 10.4884 26.6154C10.8471 28.9396 11.5023 31.2363 12.2679 33.464C13.0265 35.678 12.1023 37.9677 9.84702 38.7264C5.8123 40.0851 1.92242 37.8574 0.694761 33.4709C-0.0018319 30.9742 -0.091495 28.4017 0.0671352 25.8429C0.211971 23.5393 0.563709 21.2426 0.846485 18.9528C0.901661 18.5321 1.06029 18.1183 1.35686 17.7183C1.35686 18.2424 1.34997 18.7666 1.35686 19.2908C1.40514 22.6289 1.35687 25.967 1.54308 29.2914C1.62585 30.7742 2.02587 32.2916 2.56383 33.6847C3.28112 35.5607 4.75017 36.6021 6.86064 36.5677C8.85386 36.5401 10.0126 35.5676 10.2402 33.5744C10.316 32.8985 10.2815 32.1881 10.1643 31.5191C9.49528 27.7947 9.04008 24.0497 9.29526 20.2564C9.35044 19.3873 9.48149 18.5252 9.58495 17.6631C9.61253 17.67 9.63322 17.6769 9.65391 17.6838Z" fill="white"/>
<path d="M4.01934 17.1528C4.17797 19.5598 4.31591 21.9669 4.49523 24.3739C4.65386 26.5395 4.85387 28.7052 5.04008 30.8639C5.05388 31.0295 5.11595 31.1881 5.11595 31.3536C5.13664 31.9192 5.12975 32.5537 4.45385 32.6916C3.72277 32.8434 3.61931 32.1606 3.52275 31.6847C3.35723 30.8501 3.1848 29.9949 3.21929 29.1535C3.37792 25.2774 3.60552 21.4082 3.81243 17.539C3.81932 17.408 3.85381 17.2769 3.8745 17.1459C3.91588 17.1528 3.97106 17.1528 4.01934 17.1528Z" fill="white"/>
<path d="M7.02579 17.339C7.21891 20.353 7.37064 23.3738 7.63273 26.3878C7.74998 27.7465 8.08793 29.0914 8.32242 30.4363C8.3776 30.7605 8.50864 31.1053 8.43967 31.4088C8.35691 31.7605 8.12241 32.3399 7.9224 32.3537C7.52927 32.3813 6.90165 32.1881 6.75681 31.8985C6.44645 31.2846 6.23264 30.5398 6.25333 29.857C6.39127 25.6774 6.60507 21.5048 6.79819 17.3252C6.87406 17.3252 6.94992 17.3321 7.02579 17.339Z" fill="white"/>
<path d="M31.7108 39.4989C31.2694 38.7609 31.6142 38.3333 32.1867 37.8022C33.6764 36.4159 34.0557 34.1123 33.2212 32.3122C32.9039 31.6225 32.497 31.2294 31.5797 31.2915C30.3866 31.3674 29.1382 31.2846 27.9795 31.0087C24.7655 30.2431 23.1103 28.0223 22.5792 24.8428C21.4343 17.9528 24.7448 10.0764 32.6695 7.22108C32.8143 7.16591 32.966 7.13142 33.1936 7.20039C32.9591 7.4142 32.7108 7.60731 32.497 7.83491C30.9452 9.49018 30.89 11.8214 32.4419 13.6077C33.0074 14.2629 33.7247 14.8353 34.4627 15.2836C36.6973 16.6423 37.7249 18.6907 38.0974 21.1874C38.656 24.9532 37.3456 27.9396 34.4144 30.2776C34.2489 30.4156 34.0902 30.5604 33.8626 30.7535C35.1317 32.1191 35.642 33.7123 35.4351 35.5469C35.2351 37.3746 34.3937 38.7195 32.635 39.3816C32.3453 39.492 32.0005 39.4575 31.6763 39.4851L31.7108 39.4989ZM30.8762 26.9257C31.6349 24.3669 32.6074 22.1737 35.3662 21.5323C33.2557 22.891 32.2143 24.829 32.1177 27.3257C32.0763 28.3741 32.4143 29.1948 33.2971 29.8224C33.4764 29.7121 33.6695 29.6086 33.8488 29.4845C37.5594 26.8085 37.9318 20.1667 34.5454 17.0975C33.6488 16.2906 33.3729 16.2699 32.4626 17.0768C31.2487 18.1459 30.6073 19.5873 29.9658 21.0219C29.0279 23.1186 29.5658 24.9808 30.8762 26.9257ZM27.1243 12.1386C25.8001 13.3801 23.9793 17.0355 23.6137 19.7736C23.2689 22.353 23.4689 24.898 24.9655 27.1671C25.1104 27.3809 25.3311 27.6844 25.5311 27.7051C26.9312 27.8223 28.3313 27.8706 29.8969 27.9534C29.1658 26.7395 28.5864 25.7739 28.014 24.8221C25.8828 25.3049 24.7931 25.0428 24.1586 23.7324C25.4001 23.8152 26.5519 23.891 27.7657 23.9738C27.0622 21.9599 27.1588 19.6218 24.5586 18.8218C24.6207 18.739 24.6759 18.6631 24.7379 18.5804C25.3173 18.5459 25.8966 18.5114 26.3105 18.4907C26.5863 16.2906 26.8691 14.1318 27.1243 12.1386ZM30.8073 13.7732C28.4209 15.8699 27.2071 20.5253 28.5451 22.5599C29.0761 19.7046 30.4417 17.3803 32.8902 15.7043C32.2143 15.0836 31.5315 14.4491 30.8073 13.7732ZM30.828 8.88325C28.3589 10.035 26.9588 15.0353 27.3864 17.9321C28.1451 16.1044 28.9382 14.3939 30.3245 13.049C30.4004 12.9732 30.4486 12.7869 30.421 12.6835C30.0417 11.3868 30.2762 10.1454 30.828 8.88325ZM26.0277 28.4017C27.0415 29.9742 29.8486 30.857 31.9591 30.2914C31.4556 29.7052 30.9935 29.1465 30.4969 28.6017C30.4004 28.4982 30.221 28.4155 30.0762 28.4155C28.7451 28.3948 27.414 28.4017 26.0277 28.4017Z" fill="white"/>
<path d="M45.6009 26.5809C47.9734 26.5947 49.9253 27.6844 51.4978 29.4708C52.4979 30.6019 52.7599 31.995 52.3323 33.4227C51.4633 36.3677 50.0494 38.961 46.9527 40.0783C44.6077 40.9266 42.4214 40.43 40.6075 38.7058C38.697 36.8919 37.5039 34.6849 38.0142 31.995C38.5867 28.9604 40.9247 27.6293 43.6352 26.8016C43.8973 26.7189 44.1732 26.6706 44.4422 26.643C44.8008 26.6016 45.1595 26.6016 45.6009 26.5809ZM39.4143 33.2641C39.5523 34.8849 40.2282 36.6505 41.7179 38.0299C42.7524 38.9886 44.0077 39.4852 45.4216 39.2989C48.4907 38.892 50.277 34.9814 48.6907 32.1537C47.9734 30.8777 46.9596 29.8708 45.6836 29.1604C42.6214 27.4706 39.4143 29.388 39.4143 33.2641ZM50.5943 35.2642C51.2012 34.2228 51.4564 33.1813 51.2564 32.064C50.8633 29.8984 48.4769 27.8224 45.9664 27.4568C44.6077 27.2568 43.3111 27.4017 42.0076 28.2293C46.7941 27.512 49.8701 30.0639 50.5943 35.2642Z" fill="white"/>
<path d="M43.8833 19.684C46.1938 18.8564 48.3594 19.2771 50.4837 20.3599C53.9046 22.1049 54.6563 25.8499 53.7804 28.7742C53.6149 29.326 53.2976 29.8226 52.47 29.7881C52.5045 29.4087 52.5114 29.0639 52.5666 28.719C52.8562 26.9189 52.6355 25.1947 51.7872 23.5808C50.2699 20.6979 46.1731 19.8151 43.5729 21.7945C43.3177 21.9876 43.097 22.229 42.8832 22.5187C44.9868 21.2841 47.049 21.36 49.0008 22.7256C50.9803 24.1188 51.7665 26.181 52.0286 28.6846C51.2837 28.119 50.7182 27.6914 50.4837 26.8707C50.263 26.112 49.9112 25.374 49.4836 24.705C48.1387 22.6014 46.1179 22.0152 43.8074 22.9877C42.5798 23.5049 41.8832 24.3946 41.8487 25.7809C41.8418 26.1396 41.6004 26.4913 41.3935 27.0293C40.6831 26.112 40.7038 25.3395 40.8141 24.5809C41.0969 22.6428 41.9521 21.0289 43.6419 19.9323C43.7522 19.8633 43.8212 19.7392 43.9178 19.6426C43.9178 19.6564 43.8833 19.684 43.8833 19.684Z" fill="white"/>
<path d="M43.9183 19.6564C42.9941 18.9736 42.9734 17.9735 43.0906 16.9942C43.5872 12.7732 48.491 10.6973 51.8705 13.2905C53.5188 14.5527 54.8431 16.0976 55.3672 18.1736C55.6638 19.346 55.581 20.5047 54.8707 21.6565C54.6086 20.5116 54.4086 19.4564 54.1258 18.4287C53.5189 16.201 52.0636 14.6906 49.96 13.8216C48.2496 13.1181 46.3046 13.6423 45.2494 15.0492C47.622 14.7251 49.8704 14.8423 51.6498 16.6424C52.505 17.5115 52.7602 18.6357 52.4774 19.953C52.2774 19.6081 52.036 19.2702 51.8705 18.9115C50.9394 16.8838 48.6358 15.532 46.3874 15.7251C44.7528 15.8631 43.7527 17.0838 43.8148 18.8771C43.8217 19.1529 43.8631 19.4288 43.8907 19.6978C43.8838 19.684 43.9183 19.6564 43.9183 19.6564Z" fill="white"/>
<path d="M31.6897 39.4782C34.8417 41.3542 38.3384 41.8508 41.9179 42.0577C33.6278 43.844 25.7928 39.5472 24.0962 30.6018C25.8066 34.2848 28.0482 37.5126 31.7173 39.4989C31.7104 39.4989 31.6897 39.4782 31.6897 39.4782Z" fill="white"/>
<path d="M48.6842 11.6077C48.0496 11.4973 47.3393 11.518 46.7875 11.2422C44.3184 10.0283 42.2355 11.3318 42.3321 14.0906C42.3459 14.4975 42.3941 14.9044 42.27 15.4148C42.0907 15.1872 41.8631 14.9803 41.7458 14.7251C40.6906 12.4974 41.7734 10.3249 44.1667 9.82828C45.884 9.47653 47.8358 10.1317 48.6842 11.6077Z" fill="white"/>
<path d="M34.6006 9.73869C36.3179 8.00755 40.0285 7.6627 42.2148 9.33866C40.932 9.2628 39.6423 9.06968 38.3663 9.13865C37.0697 9.20762 35.7869 9.53868 34.6006 9.73869Z" fill="white"/>
</svg>
