<svg width="95" height="56" viewBox="0 0 95 56" fill="none" xmlns="http://www.w3.org/2000/svg">
<path d="M47.4034 48.3944C44.1447 50.7432 40.7096 52.6759 36.9571 53.9667C33.2258 55.2505 29.4169 55.9417 25.5022 54.8696C20.8468 53.5929 16.2761 52.1187 12.312 49.1844C6.59161 44.9523 2.60636 39.4434 0.0741344 32.8343C0.017706 32.6791 -0.0105125 32.5169 0.00359463 32.2982C4.43322 40.8894 11.4233 46.6099 20.205 50.4752C18.1312 43.9295 24.1126 39.5986 29.3111 40.6496C28.3518 40.9529 27.1245 41.2139 26.0171 41.7288C22.1658 43.5063 22.6384 48.6554 25.0296 50.5457C26.9693 52.0834 29.2476 52.4643 31.6105 52.6265C36.3082 52.944 40.4698 51.3287 44.4339 49.0292C45.238 48.5637 46.0562 48.1123 46.8321 47.5974C47.2765 47.3011 47.6009 47.3434 48.0383 47.6115C50.7821 49.2902 53.5541 50.9266 56.6577 51.8507C60.1069 52.8734 63.6054 53.0004 67.0758 51.9776C70.6519 50.9266 72.4153 47.9007 71.4208 44.6631C70.8918 42.9491 69.6503 41.9404 68.0492 41.362C67.1604 41.0446 66.2223 40.8894 65.4182 40.6849C70.8494 39.5845 76.6616 44.0071 74.5878 50.4893C83.3413 46.631 90.3172 40.967 94.761 32.2629C94.8033 32.5169 94.8385 32.5945 94.8174 32.6438C91.347 41.623 85.6125 48.5778 76.6263 52.422C73.826 53.6211 70.8353 54.4887 67.8517 55.1235C64.2262 55.8994 60.6853 54.9895 57.2572 53.7269C53.7234 52.4502 50.507 50.6092 47.4034 48.3944Z" fill="white"/>
<path d="M47.6147 0.0142518C48.6728 0.740767 49.8013 1.38969 50.7888 2.20791C57.0242 7.32173 61.3198 13.677 62.9139 21.6757C63.2807 23.5167 63.4147 25.4141 63.6616 27.3679C68.7683 25.4352 74.1079 24.8216 79.5814 25.6539C85.0409 26.4862 90.0418 28.4965 94.5984 31.6847C83.8065 26.3875 72.8312 26.7119 61.5878 30.6125C61.4891 30.1893 61.3268 29.7802 61.2986 29.3641C60.9107 23.5449 59.641 17.9585 57.1511 12.6613C55.0351 8.16109 52.1784 4.22522 48.4682 0.917105C48.1649 0.642017 47.911 0.310505 47.6289 0.00720215L47.6147 0.0142518Z" fill="white"/>
<path d="M47.6292 0C47.2835 0.21866 46.9026 0.40205 46.6064 0.670085C39.1014 7.3639 35.2431 15.9128 33.8889 25.7313C33.7266 26.9304 33.6772 28.1437 33.5432 29.3498C33.5009 29.7519 33.3528 30.1469 33.2399 30.6124C22.0742 26.733 11.1059 26.3591 0.313965 31.6281C4.82118 28.4611 9.79393 26.4861 15.2111 25.6608C20.6634 24.8285 25.9818 25.428 31.2438 27.4101C31.3284 26.345 31.3707 25.3716 31.4836 24.4053C32.7321 13.9096 38.2409 6.09427 46.7757 0.204559C46.9943 0.0564344 47.3329 0.0846486 47.615 0.0282202C47.615 0.0141131 47.6292 0 47.6292 0Z" fill="white"/>
<path d="M48.5952 44.663C50.6408 42.8361 51.8258 40.5648 52.256 37.9057C52.7357 34.9784 52.4676 32.1147 51.332 29.3638C50.7395 27.9249 49.8367 26.7258 48.433 25.957C47.7277 25.569 47.0646 25.5761 46.3522 25.964C45.2942 26.5353 44.4619 27.3465 43.9611 28.4045C41.7886 32.9752 41.6122 37.56 44.1021 42.0955C44.3702 42.5822 44.7511 43.0124 45.1037 43.4568C45.4494 43.8871 45.8161 44.2962 46.0912 44.6206C44.1303 43.7178 42.4939 42.2295 41.3512 40.2263C39.475 36.9323 39.08 33.4126 40.0252 29.7729C40.5895 27.6075 41.8944 25.9428 43.8129 24.7861C47.7982 22.3808 51.6071 24.4828 53.4833 27.0855C55.0704 29.2862 55.409 31.8184 55.1974 34.4212C54.8517 38.6533 53.0813 42.0884 49.3076 44.3103C49.089 44.4302 48.8351 44.536 48.5952 44.663Z" fill="white"/>
<path d="M48.2923 19.4256C47.6857 19.4256 47.1567 19.4256 46.6206 19.4256C46.7123 17.0486 45.5273 15.3204 43.1573 14.3823C42.7976 17.4506 43.778 20.0322 45.6472 22.4234C45.358 22.2541 45.0477 22.1059 44.7726 21.9084C41.8313 19.7853 40.35 15.6449 41.267 12.1322C42.0076 9.28965 44.6245 7.25117 47.467 7.29349C50.4789 7.34287 53.1169 9.52947 53.6319 12.5837C54.2667 16.3432 53.0464 19.4679 50.0627 21.8732C49.8159 22.0707 49.5267 22.2188 49.1952 22.3317C51.0291 19.9899 52.0025 17.4294 51.6427 14.4176C49.3433 15.1723 47.7986 17.3801 48.2923 19.4256ZM43.4677 13.3454C44.7162 14.0155 45.9012 14.6715 47.1144 15.2711C47.3119 15.3698 47.6787 15.2428 47.9185 15.1159C48.5392 14.7985 49.1105 14.3823 49.7453 14.0931C50.2673 13.8533 50.8386 13.7263 51.3818 13.557C51.015 11.5186 49.1528 9.76223 47.4177 9.76223C45.6543 9.76223 43.8063 11.5115 43.4677 13.3454Z" fill="white"/>
<path d="M44.3845 46.0949C40.7378 45.3896 37.204 44.3739 34.1357 42.1943C33.3457 41.6301 32.6051 40.9388 31.9985 40.177C30.616 38.4277 30.3691 36.4598 31.4977 34.4989C32.1395 33.3845 32.8872 32.27 33.8112 31.4095C35.5958 29.7519 37.5496 28.2636 39.4329 26.7118C39.5105 26.7894 39.581 26.8599 39.6586 26.9375C39.5175 27.1138 39.3765 27.2902 39.2213 27.4595C37.4932 29.3569 35.8991 31.353 34.6435 33.6102C33.2117 36.1918 33.7125 38.4842 35.49 40.6284C37.1123 42.5893 39.3342 43.725 41.5701 44.8112C42.5012 45.2556 43.4464 45.6647 44.3845 46.0949Z" fill="white"/>
<path d="M50.6055 46.0244C51.2826 45.714 51.8116 45.4742 52.3336 45.2273C54.6824 44.127 57.0595 43.0478 58.8581 41.101C59.5353 40.3745 60.0643 39.4787 60.5298 38.5899C61.2281 37.2639 61.1505 35.8814 60.558 34.513C59.4647 31.9596 57.7225 29.8647 55.9027 27.8121C55.677 27.5582 55.4513 27.3113 55.1762 27.0151C55.3031 27.001 55.3878 26.9657 55.4301 26.9939C58.1034 28.7009 60.6215 30.5983 62.5189 33.1799C64.769 36.2482 64.4516 39.0414 61.5526 41.5172C58.9357 43.7461 55.7616 44.8182 52.517 45.714C52.0303 45.848 51.5295 45.9538 51.0357 46.0596C50.9652 46.0737 50.8806 46.0455 50.6055 46.0244Z" fill="white"/>
<path d="M28.9797 38.5548C26.638 37.7577 24.3032 36.9607 21.9615 36.1707C17.5883 34.6894 13.201 33.2505 8.6091 32.6227C6.35901 32.3124 4.07366 32.2207 1.6543 32.0161C2.52188 31.7693 3.28368 31.5012 4.06662 31.346C8.08009 30.5419 12.0301 31.0145 15.9236 32.0937C20.3744 33.3281 24.536 35.2184 28.3449 37.8565C28.5918 38.0258 28.8246 38.2232 29.0714 38.4066C29.0432 38.456 29.015 38.5054 28.9797 38.5548Z" fill="white"/>
<path d="M65.8271 38.5264C67.915 36.7771 70.2145 35.4511 72.655 34.3648C77.6207 32.15 82.7557 30.6476 88.2574 31.0214C89.8868 31.1343 91.488 31.5716 93.1032 31.8538C93.0891 31.9878 93.075 32.1218 93.0609 32.2558C91.7913 32.2558 90.5075 32.1853 89.2449 32.2699C83.9477 32.6226 78.9115 34.1462 73.9105 35.8037C71.5617 36.5796 69.234 37.4119 66.8922 38.216C66.5466 38.336 66.1798 38.4206 65.8271 38.5264Z" fill="white"/>
<path d="M58.8657 45.8905C60.7984 44.4516 65.6371 44.9665 67.2101 46.8004C64.3957 46.4971 61.6589 46.2009 58.8657 45.8905Z" fill="white"/>
<path d="M27.5688 46.8075C29.2899 44.9736 33.7266 44.501 36.0261 45.8835C33.1764 46.1939 30.4467 46.4901 27.5688 46.8075Z" fill="white"/>
</svg>
