<svg width="86" height="93" viewBox="0 0 86 93" fill="none" xmlns="http://www.w3.org/2000/svg">
<path d="M3.03037 22.9715C5.20307 23.9911 7.38983 25.0036 9.55549 26.0372C14.5478 28.4208 19.5049 30.8678 24.5253 33.1811C27.0777 34.3624 29.7637 35.2132 32.5762 35.5507C33.3497 35.6421 34.1513 35.6491 34.9317 35.6139C36.4365 35.5366 37.5685 34.8756 38.3209 33.4905C39.5725 31.1842 40.3389 28.7091 40.6412 26.1427C41.1545 21.7973 41.478 17.4238 41.8506 13.0643C42.2233 8.71188 42.5538 4.35946 43.046 0C43.271 2.62974 43.51 5.25244 43.7139 7.88217C44.1218 13.0924 44.4452 18.3097 44.9233 23.5129C45.1976 26.5364 45.7671 29.5388 47.0749 32.3092C48.657 35.6632 49.4937 36.1343 53.1149 35.6913C57.1017 35.1991 60.751 33.6381 64.3299 31.9436C70.1871 29.1662 76.0091 26.3114 81.8521 23.4918C82.0983 23.3723 82.3514 23.2809 82.6608 23.302C80.7131 24.6591 78.7794 26.0302 76.8177 27.3732C72.4371 30.3685 68.0144 33.3147 63.662 36.3593C61.3135 38.0046 59.1127 39.875 57.3548 42.1672C54.5915 45.7743 54.5774 47.0259 57.3759 50.5697C60.1111 54.0291 63.7182 56.5182 67.3183 58.9722C72.191 62.291 77.0778 65.6028 81.9576 68.9216C82.2107 69.0974 82.4569 69.2802 82.6467 69.5825C81.4795 69.0341 80.3052 68.4997 79.138 67.9442C73.4215 65.202 67.7191 62.4105 61.9815 59.7175C59.2603 58.4448 56.4126 57.4393 53.4102 57.0315C52.4188 56.8979 51.3922 56.8909 50.3867 56.9471C49.0789 57.0245 48.0734 57.6222 47.3843 58.8105C46.0202 61.166 45.2468 63.7254 44.9304 66.3762C44.41 70.7216 44.0866 75.0952 43.7139 79.4616C43.3413 83.8281 43.0108 88.1946 42.5327 92.5611C42.3639 90.6064 42.1811 88.6587 42.0264 86.7039C41.5694 80.7976 41.1826 74.8772 40.6483 68.9778C40.374 65.9544 39.8045 62.9519 38.4826 60.1816C36.781 56.6167 36.0357 56.4198 32.2458 56.8698C28.498 57.3128 25.0386 58.7894 21.6635 60.3996C15.5744 63.2895 9.52034 66.2426 3.45929 69.1747C3.29053 69.2591 3.11475 69.3294 2.86865 69.3083C3.09366 69.1396 3.31162 68.9567 3.54366 68.795C9.32345 64.8504 15.1243 60.941 20.869 56.9471C23.7167 54.9713 26.4378 52.8127 28.5051 49.9931C30.9449 46.6813 30.8957 45.5141 28.4348 42.2586C25.9456 38.9679 22.6268 36.5632 19.2588 34.2498C14.1118 30.7201 8.94377 27.2325 3.78273 23.7309C3.50851 23.5411 3.23428 23.3442 2.96005 23.1473C2.98818 23.077 3.00928 23.0278 3.03037 22.9715ZM47.6234 46.386C47.6726 43.6719 45.5913 41.3304 43.0249 41.3797C40.2334 41.4289 38.0185 43.0672 37.9552 46.0766C37.899 48.8259 40.0014 51.2377 42.596 51.1392C45.3874 51.0337 47.5461 49.4798 47.6234 46.386ZM28.9832 39.1929C30.1363 40.4164 31.3809 41.5555 32.4004 42.8774C33.7716 44.6493 33.9122 46.6673 32.8786 48.6572C32.4567 49.4658 31.852 50.197 31.2262 50.872C30.4879 51.6666 29.6301 52.3627 28.8285 53.101C28.8707 53.1643 28.9129 53.2276 28.948 53.2908C30.3754 52.426 31.8731 51.6455 33.2161 50.6611C34.0528 50.0494 34.77 49.1986 35.3677 48.3337C36.3521 46.9134 36.338 45.3876 35.3888 43.918C33.8419 41.5203 31.4161 40.332 28.9832 39.1929ZM56.6376 39.4531C56.6165 39.3968 56.5954 39.3476 56.5743 39.2913C55.4142 39.9453 54.1626 40.4867 53.1219 41.2953C52.011 42.1602 50.9844 43.1938 50.1406 44.3118C49.2336 45.5141 49.2406 46.9345 50.0141 48.2775C51.4836 50.8298 53.9516 52.0533 56.3212 53.3471C55.4212 52.4682 54.6337 51.4908 53.8251 50.5345C51.4274 47.7079 51.4344 44.818 53.9165 42.0758C54.7602 41.1476 55.7235 40.325 56.6376 39.4531ZM41.9772 30.4951C41.6326 31.8943 41.3866 33.2795 40.9506 34.6014C39.8537 37.8991 37.7865 39.1437 34.3481 38.5601C32.8716 38.307 31.4371 37.8359 29.9113 37.4491C32.07 38.982 34.2356 40.4093 36.9216 40.6765C39.2349 40.9086 40.7537 39.9242 41.5342 37.7515C42.385 35.3889 42.2233 32.9701 41.9772 30.4951ZM55.4915 55.0276C53.9587 53.6354 51.1531 52.1588 49.2758 51.9127C46.4773 51.54 44.853 52.3205 43.9882 54.8799C43.3624 56.7151 43.2006 59.9706 43.6928 61.9605C43.7702 61.5386 43.7913 61.2011 43.8897 60.8847C44.3397 59.387 44.6983 57.8472 45.3101 56.4198C45.8726 55.112 46.9484 54.1487 48.425 53.9729C49.5008 53.8463 50.6258 53.8604 51.6875 54.0291C52.9462 54.233 54.1696 54.669 55.4915 55.0276ZM41.4569 61.609C41.5061 61.609 41.5623 61.616 41.6116 61.616C41.6608 60.9339 41.7311 60.2589 41.7452 59.5769C41.7873 57.4534 41.6678 55.3581 40.5076 53.4807C39.7623 52.2713 38.7428 51.5892 37.2451 51.6666C34.4466 51.8072 32.2458 53.2557 30.0871 54.8166C31.1207 54.5846 32.1192 54.219 33.1458 53.9799C34.988 53.551 36.8583 53.3471 38.4756 54.6057C39.8115 55.6463 40.4022 57.1933 40.8311 58.7823C41.0912 59.7105 41.253 60.6667 41.4569 61.609ZM55.6814 37.6319C54.0782 38.0257 52.5594 38.5179 50.9985 38.757C48.7554 39.1015 46.8499 38.4335 45.7882 36.2679C45.289 35.2483 44.9233 34.1444 44.5788 33.0615C44.3538 32.3725 44.2764 31.6342 44.1288 30.917C43.9038 31.5779 43.8335 32.2318 43.8194 32.8928C43.7772 34.9249 43.8827 36.9429 44.9093 38.7781C45.8655 40.4867 47.089 41.0703 49.0297 40.789C51.5539 40.4234 53.6071 39.0804 55.6814 37.6319Z" fill="white"/>
<path d="M85.1919 46.3016C81.402 47.061 77.6965 48.1789 73.787 47.8485C68.4994 47.3985 63.2048 47.0258 57.9102 46.4633C59.675 46.2102 61.4399 45.9289 63.2118 45.7109C66.608 45.2961 70.0112 44.839 73.4214 44.5437C76.1918 44.3047 78.8848 45.0078 81.5848 45.5211C82.7872 45.7461 83.9896 46.0344 85.1919 46.3016ZM67.3814 46.2945C72.205 47.1875 77.0355 47.2719 81.9645 46.393C77.0426 45.1976 72.212 45.4859 67.3814 46.2945Z" fill="white"/>
<path d="M0 45.9151C1.8141 45.5846 3.64226 45.3174 5.44229 44.9166C9.42205 44.0377 13.3877 44.7338 17.3534 44.987C20.6582 45.2049 23.9559 45.5284 27.2677 45.9362C25.5098 46.1893 23.752 46.4565 21.9871 46.6886C19.0621 47.0683 16.137 47.4269 13.212 47.7784C9.97752 48.1652 6.8345 47.5112 3.6985 46.8854C2.46801 46.6393 1.24456 46.3511 0.0140658 46.0839C0.00703438 46.0206 0.00703138 45.9714 0 45.9151ZM3.26256 45.9995C8.23375 47.1878 13.0573 46.8995 18.1199 46.0909C13.0432 45.219 8.20562 45.0995 3.26256 45.9995Z" fill="white"/>
<path d="M64.0908 9.15491C62.8533 12.9026 61.9181 16.7277 59.6258 20.0043C56.8063 24.0333 54.0429 28.0975 51.2585 32.1475C51.153 32.3022 51.0194 32.4428 50.7944 32.5413C50.8507 32.3444 50.8858 32.1335 50.9702 31.9436C52.7351 27.7248 54.4859 23.4989 56.2719 19.2942C57.3969 16.6363 59.3376 14.5409 61.1868 12.3893C62.129 11.2854 63.1204 10.2307 64.0908 9.15491ZM54.9992 24.9052C57.9805 21.4317 62.2486 14.0417 62.3611 12.2347C58.9649 15.8136 56.8696 20.159 54.9992 24.9052Z" fill="white"/>
<path d="M50.2112 59.7599C53.3964 64.0772 56.8278 68.2327 59.6755 72.7609C61.356 75.4399 62.1224 78.7024 63.2826 81.7048C63.4794 82.2181 63.606 82.7666 63.6482 83.3713C63.0435 82.6822 62.4669 81.972 61.8341 81.304C58.7473 78.0345 56.5606 74.2094 54.7535 70.1171C53.3472 66.9389 51.7933 63.824 50.3026 60.674C50.1831 60.4279 50.0847 60.1747 49.9722 59.9216C50.0495 59.8654 50.1269 59.8161 50.2112 59.7599ZM54.7254 67.5788C56.4762 72.332 58.8036 76.6282 62.0802 80.5095C60.6177 75.5946 57.8965 71.5234 54.7254 67.5788Z" fill="white"/>
<path d="M21.439 9.11255C24.5328 12.4595 27.5703 15.7431 29.3915 19.969C31.079 23.8855 33.0196 27.6895 34.8478 31.5427C34.9884 31.845 35.122 32.1474 35.1783 32.527C35.1009 32.4497 35.0025 32.3864 34.9392 32.302C32.0634 28.5262 29.1735 24.7503 26.3117 20.9604C24.6593 18.7737 23.8226 16.2002 22.9366 13.6548C22.4093 12.1571 21.9312 10.6313 21.439 9.11255ZM30.5165 24.8347C28.7586 20.0745 26.4383 15.7783 23.1617 11.8899C24.6031 16.8189 27.3523 20.876 30.5165 24.8347Z" fill="white"/>
<path d="M21.1079 83.2516C22.4017 79.321 23.4494 75.3342 25.8963 71.91C28.6737 68.0286 31.3315 64.0629 34.0386 60.1324C34.1792 59.9285 34.3339 59.7316 34.6011 59.5769C34.0949 60.8426 33.6097 62.1082 33.0894 63.3668C31.9854 66.0388 30.8112 68.6755 29.7635 71.3685C28.4698 74.6803 26.3603 77.4155 24.0259 80.0242C23.0626 81.114 22.0782 82.1828 21.1079 83.2516ZM30.2065 67.5083C27.3799 70.7006 22.9431 78.3788 22.8728 80.1296C26.2689 76.5647 28.3573 72.2123 30.2065 67.5083Z" fill="white"/>
<path d="M18.1549 39.5093C15.6236 39.664 13.2119 39.1437 10.8774 38.2015C10.8985 38.096 10.9196 37.9906 10.9337 37.8781C13.3595 38.321 15.7853 38.764 18.2041 39.207C18.1901 39.3054 18.169 39.4039 18.1549 39.5093Z" fill="white"/>
<path d="M36.2748 21.6848C34.8263 19.3574 34.0388 17.0651 33.7153 14.5198C34.5661 15.4409 36.1623 19.8496 36.2748 21.6848Z" fill="white"/>
<path d="M49.1003 70.9397C50.4011 73.0561 51.1957 75.3484 51.491 77.8094C51.3925 77.8445 51.287 77.8797 51.1886 77.9148C50.373 75.6226 49.5573 73.3304 48.7417 71.0381C48.8612 71.003 48.9808 70.9678 49.1003 70.9397Z" fill="white"/>
<path d="M74.3145 54.5143C71.8957 54.0784 69.4769 53.6354 67.0581 53.1994C68.5909 52.5455 72.8731 53.326 74.3145 54.5143Z" fill="white"/>
<path d="M24.4906 64.323C23.3023 66.5238 21.7062 68.3731 19.7163 69.8848C19.6319 69.8145 19.5546 69.7442 19.4702 69.6739C21.0523 67.8036 22.6343 65.9332 24.2164 64.0629C24.3078 64.1543 24.3992 64.2386 24.4906 64.323Z" fill="white"/>
<path d="M65.5676 22.5708C64.2597 24.6662 62.741 26.5787 60.8003 28.1326C61.8972 25.8685 63.5074 24.0333 65.5676 22.5708Z" fill="white"/>
<path d="M74.5603 38.3281C72.2751 39.207 69.9336 39.8047 67.4375 39.5867C69.7086 38.6164 72.1274 38.4406 74.5603 38.3281Z" fill="white"/>
<path d="M10.7373 54.0221C13.0155 53.1853 15.3288 52.5666 17.7898 52.8056C15.5257 53.7338 13.1491 53.9728 10.7373 54.0221Z" fill="white"/>
<path d="M24.3354 28.1115C22.7815 26.22 21.2346 24.3286 19.6807 22.4371C21.2909 23.1192 23.8503 26.1286 24.5675 27.8794C24.4972 27.9638 24.4128 28.0341 24.3354 28.1115Z" fill="white"/>
<path d="M65.3357 70.117C63.4513 68.5138 61.7005 66.7912 60.5825 64.4497C61.8552 65.1599 64.4638 68.2537 65.3357 70.117Z" fill="white"/>
<path d="M49.1074 21.1083C49.9723 18.8301 50.8301 16.5449 51.695 14.2667C51.7864 14.3019 51.8778 14.337 51.9692 14.3722C51.484 16.784 50.8582 19.1465 49.466 21.2278C49.3465 21.1926 49.227 21.1504 49.1074 21.1083Z" fill="white"/>
<path d="M33.3145 78.0483C33.7434 75.6014 34.3481 73.2178 35.8457 71.1716C35.4942 73.6537 34.4817 75.8827 33.3145 78.0483Z" fill="white"/>
<path d="M42.4974 49.4868C40.7748 49.4657 39.4036 48.0805 39.4107 46.3578C39.4177 44.6 40.824 43.2288 42.5959 43.2429C44.3045 43.257 45.7108 44.6773 45.7038 46.3719C45.7038 48.1086 44.2623 49.5079 42.4974 49.4868Z" fill="white"/>
<path d="M78.3505 46.3367C76.4872 46.3367 74.6309 46.3367 72.7676 46.3367C72.7676 46.3016 72.7676 46.2594 72.7746 46.2242C74.6309 46.2242 76.4872 46.2242 78.3435 46.2242C78.3435 46.2594 78.3505 46.3016 78.3505 46.3367Z" fill="white"/>
<path d="M6.89062 46.0626C8.74691 46.0626 10.6032 46.0626 12.4595 46.0626C12.4595 46.0978 12.4524 46.1329 12.4524 46.1751C10.6102 46.1751 8.77503 46.1751 6.93281 46.1751C6.91875 46.1329 6.90469 46.0978 6.89062 46.0626Z" fill="white"/>
<path d="M57.6714 19.9268C58.5222 18.4713 59.38 17.0158 60.2308 15.5674C60.3152 15.6166 60.4066 15.6658 60.491 15.7221C59.6331 17.1705 58.7753 18.626 57.9175 20.0745C57.8401 20.0182 57.7558 19.969 57.6714 19.9268Z" fill="white"/>
<path d="M60.062 77.1553C59.2041 75.6365 58.3393 74.1178 57.4814 72.5919C57.5729 72.5427 57.6643 72.4865 57.7557 72.4373C58.5994 73.949 59.4432 75.4678 60.294 76.9795C60.2096 77.0428 60.1323 77.0991 60.062 77.1553Z" fill="white"/>
<path d="M27.4786 19.962C26.6348 18.4432 25.791 16.9174 24.9473 15.3986C25.0246 15.3564 25.102 15.3072 25.1793 15.265C26.0371 16.7768 26.8879 18.2955 27.7458 19.8073C27.6614 19.8565 27.57 19.9128 27.4786 19.962Z" fill="white"/>
<path d="M24.4976 77.0781C25.4257 75.503 26.3468 73.928 27.275 72.3459C27.3593 72.3952 27.4507 72.4444 27.5351 72.5006C26.607 74.0616 25.6859 75.6296 24.7577 77.1906C24.6663 77.1554 24.5819 77.1203 24.4976 77.0781Z" fill="white"/>
</svg>
